<?xml version="1.0" encoding="utf-8"?>
<!-- Generator: Adobe Illustrator 26.0.2, SVG Export Plug-In . SVG Version: 6.00 Build 0)  -->
<svg version="1.1" id="Layer_1" xmlns="http://www.w3.org/2000/svg" xmlns:xlink="http://www.w3.org/1999/xlink" x="0px" y="0px"
	 viewBox="0 0 612 792" style="enable-background:new 0 0 612 792;" xml:space="preserve">
<style type="text/css">
	.st0{fill:#FDFDFD;}
	.st1{fill:#FE6464;}
	.st2{fill:#4B7EFE;}
	.st3{fill:#42B782;}
	.st4{fill:#9758FE;}
	.st5{fill:#43B884;}
	.st6{fill:#43B883;}
	.st7{fill:#44B884;}
	.st8{fill:#FE6666;}
	.st9{fill:#42B783;}
	.st10{fill:#8D67CC;}
	.st11{fill:#42B883;}
	.st12{fill:#906BCD;}
	.st13{fill:#46B985;}
	.st14{fill:#8F69CD;}
	.st15{fill:#45B985;}
	.st16{fill:#FE6767;}
	.st17{fill:#8E68CD;}
	.st18{fill:#4D7FFE;}
	.st19{fill:#4E80FE;}
	.st20{fill:#5182FE;}
	.st21{fill:#916CCE;}
	.st22{fill:#916BCE;}
	.st23{fill:#739EC5;}
	.st24{fill:#FE6969;}
	.st25{fill:#75A0C6;}
	.st26{fill:#4BBB89;}
	.st27{fill:#7AA3C8;}
	.st28{fill:#749FC6;}
	.st29{fill:#79A3C8;}
	.st30{fill:#76A1C7;}
	.st31{fill:#7CA4C9;}
	.st32{fill:#5283FE;}
	.st33{fill:#FE6E6E;}
	.st34{fill:#7EA6CA;}
	.st35{fill:#78A2C7;}
	.st36{fill:#926CCE;}
	.st37{fill:#7FA7CA;}
	.st38{fill:#77A1C7;}
	.st39{fill:#709DC4;}
	.st40{fill:#7CA5C9;}
	.st41{fill:#7DA5C9;}
	.st42{fill:#729EC5;}
	.st43{fill:#719DC5;}
	.st44{fill:#739FC5;}
	.st45{fill:#FE6C6C;}
	.st46{fill:#FE6F6F;}
	.st47{fill:#76A0C6;}
	.st48{fill:#79A2C8;}
	.st49{fill:#84AACC;}
	.st50{fill:#81A8CB;}
	.st51{fill:#85ABCD;}
	.st52{fill:#87ACCD;}
	.st53{fill:#86ABCD;}
	.st54{fill:#88ADCE;}
	.st55{fill:#6C9AC2;}
	.st56{fill:#4CBB89;}
	.st57{fill:#8AAFCF;}
	.st58{fill:#4BBB88;}
	.st59{fill:#47B986;}
	.st60{fill:#7BA4C8;}
	.st61{fill:#759FC6;}
	.st62{fill:#7AA4C8;}
	.st63{fill:#84ABCC;}
	.st64{fill:#51BD8C;}
	.st65{fill:#50BD8C;}
	.st66{fill:#86ACCD;}
	.st67{fill:#719DC4;}
	.st68{fill:#6C99C2;}
	.st69{fill:#6E9BC3;}
	.st70{fill:#6D9AC3;}
	.st71{fill:#709CC4;}
	.st72{fill:#6F9CC4;}
	.st73{fill:#6C9AC3;}
	.st74{fill:#46A078;}
	.st75{fill:#80A7CB;}
	.st76{fill:#90D5B6;}
	.st77{fill:#8FB1D0;}
	.st78{fill:#8AAECF;}
	.st79{fill:#FE7171;}
	.st80{fill:#B6CDE0;}
	.st81{fill:#FE6B6B;}
	.st82{fill:#B1E1CB;}
	.st83{fill:#BBE5D2;}
	.st84{fill:#A8DEC6;}
	.st85{fill:#BDE5D3;}
	.st86{fill:#85ABCC;}
	.st87{fill:#88D2B1;}
	.st88{fill:#AFE1CB;}
	.st89{fill:#8DB0D0;}
	.st90{fill:#B1E1CC;}
	.st91{fill:#BCE5D3;}
	.st92{fill:#BAE4D1;}
	.st93{fill:#B7E3CF;}
	.st94{fill:#91B3D1;}
	.st95{fill:#E0E9F2;}
	.st96{fill:#DEE8F1;}
	.st97{fill:#DDE8F1;}
	.st98{fill:#E0EAF2;}
	.st99{fill:#AEE0C9;}
	.st100{fill:#A7DDC4;}
	.st101{fill:#E2EBF3;}
	.st102{fill:#DCE6F0;}
	.st103{fill:#FEBABA;}
	.st104{fill:#D4E1ED;}
	.st105{fill:#7BA4C9;}
	.st106{fill:#7FA6CA;}
	.st107{fill:#B3E2CC;}
	.st108{fill:#DCE7F0;}
	.st109{fill:#D6E3EE;}
	.st110{fill:#DFE9F1;}
	.st111{fill:#C7D8E7;}
	.st112{fill:#EFF4F8;}
	.st113{fill:#D6E2EE;}
	.st114{fill:#87D2B1;}
	.st115{fill:#DFE9F2;}
	.st116{fill:#C1D4E4;}
	.st117{fill:#D9E5EF;}
	.st118{fill:#FDFEFD;}
	.st119{fill:#F9FCFB;}
	.st120{fill:#FAFCFB;}
	.st121{fill:#FCFDFD;}
	.st122{fill:#FDFCFD;}
	.st123{fill:#FEFCFC;}
	.st124{fill:#F8F6FB;}
	.st125{fill:#FAFBFE;}
	.st126{fill:#F6FBF9;}
	.st127{fill:#ECF1FE;}
	.st128{fill:#FEEDED;}
	.st129{fill:#EDF8F3;}
	.st130{fill:#F2EEF9;}
	.st131{fill:#FAFBFC;}
	.st132{fill:#FBFCFD;}
	.st133{fill:#F6F9FB;}
	.st134{fill:#F2F6F9;}
	.st135{fill:#F3F6F9;}
	.st136{fill:#FCFCFD;}
	.st137{fill:#F0F4F8;}
	.st138{fill:#EDF2F7;}
	.st139{fill:#F8FAFB;}
	.st140{fill:#FAFCFD;}
	.st141{fill:#F0F5F8;}
	.st142{fill:#FAFCFC;}
	.st143{fill:#F3F7FA;}
	.st144{fill:#F4F7FA;}
	.st145{fill:#F7F9FB;}
	.st146{fill:#FDFEFE;}
	.st147{fill:#FDFDFE;}
	.st148{fill:#F9FBFC;}
</style>
<path class="st0" d="M299.9,508.3c-101.2,0-202.5,0-303.7,0c-1.7,0-2-0.4-2-2c0-72,0-143.9,0-215.9c0-1.7,0.4-2,2-2
	c202.6,0,405.3,0,607.9,0c1.7,0,2,0.4,2,2c0,72,0,144,0,215.9c0,1.7-0.4,2-2,2C502.6,508.3,401.3,508.3,299.9,508.3z"/>
<path class="st1" d="M357.9,390c0-1.5-0.1-3,0-4.5c0.1-1.6-0.3-2.1-2-2.1c-6.5,0.1-13,0-19.6,0c-11.6,0-23.1,0-34.7,0
	c-1.9,0-2.5-0.3-2.5-2.4c0.1-7.5,0-15,0.1-22.4c0-2.1-0.6-2.4-2.5-2.4c-14.2,0.1-28.5,0-42.7,0.1c-1.4,0-2.2-0.2-2-1.9
	c0.1-0.9,0.4-1.4,1.3-1.3c0.4,0,0.7,0,1.1,0c31,0,62.1,0,93.2,0c0.8,0,2.1-0.8,2.3,1.1c0.2,1.8-0.6,2-2.1,2c-15,0-29.9,0-44.9-0.1
	c-2.4,0-2.9,0.7-2.8,2.9c0.1,7,0.1,13.9,0,20.9c0,1.7,0.5,2.1,2.1,2c18.1-0.1,36.2,0,54.2-0.1c2,0,2.6,0.5,2.4,2.5
	c-0.2,1.8,0,3.6,0,5.5C358.5,390,358.2,390,357.9,390z"/>
<path class="st2" d="M461.1,390c0-1.5-0.1-3.1,0-4.6c0.1-1.6-0.5-2-2-1.9c-9.3,0.1-18.5,0-27.8,0.1c-1.8,0-2.4-0.4-2.3-2.3
	c0.1-7.4,0-14.8,0.1-22.2c0-2.1-0.4-2.7-2.6-2.7c-15.3,0.1-30.7,0-46,0.1c-1.2,0-2.4,0.2-2.2-1.7c0.1-1,0.3-1.5,1.4-1.4
	c0.3,0,0.6,0,0.9,0c32,0,64,0,96,0c0.8,0,2-0.7,2.2,0.9c0.2,1.5,0,2.2-1.9,2.2c-14.8-0.1-29.6,0-44.4-0.1c-2.2,0-2.6,0.6-2.6,2.7
	c0.1,7.1,0.1,14.2,0,21.3c0,1.5,0.4,1.9,1.9,1.8c9.3-0.1,18.7,0,28-0.1c1.7,0,2.4,0.4,2.2,2.2c-0.2,1.9,0.2,3.9-0.3,5.8
	C461.5,390,461.3,390,461.1,390z"/>
<path class="st3" d="M92.5,379.9c14.3,0,28.6-0.1,42.9,0c2,0,2.6-0.5,2.5-2.5c-0.1-7-0.1-13.9,0-20.9c0.1-2.1-0.7-2.5-2.6-2.5
	c-6.8,0.1-13.6,0-20.4,0c-1,0-2,0.2-2-1.5c0-1.8,0.9-1.6,2.1-1.6c15.6,0,31.1,0,46.7,0c1.1,0,2.1-0.2,2.1,1.6c0,1.9-1.1,1.5-2.2,1.5
	c-7,0-13.9,0-20.9,0c-1.6,0-1.9,0.5-1.9,2c0.1,7.6,0,15.2,0.1,22.9c0,1.8-0.4,2.3-2.3,2.3c-14.7-0.1-29.3,0-44,0
	C92.2,380.7,92.2,380.3,92.5,379.9z"/>
<path class="st4" d="M216.1,354c-12.4,0-24.8-0.1-37.1,0c-1.8,0-2.2-0.6-2-2.2c0.1-0.6,0.2-1,0.9-1c0.4,0,0.9,0,1.3,0
	c23.7,0,47.4,0,71.1,0c0.8,0,2.1-0.7,2.3,1.2c0.1,1.6-0.5,2-2,1.9c-11.2,0-22.4,0-33.6,0C216.8,354.3,216.4,354.3,216.1,354z"/>
<path class="st5" d="M216.3,333.4c0-1.5,0.1-3.1,0-4.7c-0.1-1.4,0.7-1.7,1.8-1.5c0.9,0.2,1.6-0.1,2.4-0.1c1.7,0,3.4,0,5.2-0.1
	c1.3-0.1,1.7,1.4,1.7,2.5c0.1,3,0.1,6.1,0.1,9.1c0,0.9-0.4,1.1-1.2,1.1c-0.9,0-1.4-0.1-1.4-1.2c0-2.4,0-4.7,0-7.1
	c0-0.6,0.2-1.5-0.8-1.5c-1,0-0.8,0.9-0.8,1.5c0,2.3-0.1,4.6,0,6.9c0,1-0.3,1.4-1.4,1.5c-1.2,0-1.3-0.6-1.3-1.5c0-2.2,0-4.4,0-6.6
	c0-0.6,0.4-1.7-0.8-1.6c-1,0.1-0.9,1-0.9,1.8c0,2.1,0,4.3,0,6.4c0,1-0.1,1.7-1.4,1.6c-1.2,0-1.3-0.6-1.3-1.5
	C216.3,336.6,216.3,335,216.3,333.4z"/>
<path class="st6" d="M447,333.6c0-1.6,0.1-3.3,0-4.9c-0.1-1.4,0.7-1.7,1.8-1.5c0.9,0.2,1.6,0,2.4-0.1c1.7-0.1,3.4,0.2,5.2-0.1
	c0.9-0.2,1.4,1,1.6,1.9c0.5,3.3,0.2,6.6,0.2,10c0,1.1-0.8,0.8-1.5,0.9c-0.8,0.1-1.2-0.3-1.2-1.1c0-2.4,0-4.7,0-7.1
	c0-0.6,0.2-1.5-0.7-1.6c-1,0-0.8,0.9-0.8,1.5c0,2.1,0,4.1,0,6.2c0,0.9,0.5,2.1-1.3,2.1c-1.7,0-1.2-1.2-1.2-2c-0.1-2.1,0-4.3,0-6.4
	c0-0.6,0.1-1.5-0.9-1.4c-0.8,0.1-0.8,0.8-0.8,1.4c0,2.3,0,4.6,0,6.9c0,1-0.1,1.6-1.4,1.6c-1.2,0-1.3-0.6-1.3-1.5
	C447.1,336.7,447,335.2,447,333.6z"/>
<path class="st5" d="M273,339.9c-1.4-0.8-2-0.4-1.8,1.2c0.1,0.8,0,1.6,0,2.4c0.1,1.1-0.2,1.6-1.5,1.6c-1.1,0-1.6-0.3-1.5-1.5
	c0-5,0.1-9.9,0-14.8c0-1.4,0.8-1.8,1.8-1.4c1.2,0.5,2.1,0.1,3.1-0.2c1.8-0.5,3.1,0.1,4.1,1.8c2.4,3.9,1.3,9.6-2.3,11
	C274.3,340.3,273.7,340.3,273,339.9z"/>
<path class="st6" d="M209,339.9c-0.9-0.3-1.7-0.8-2.9-0.2c-0.9,0.5-1.9,0.2-1.9-1.4c0.1-5,0.1-9.9,0-14.9c0-1.3,0.6-1.4,1.6-1.4
	c1.1,0,1.4,0.4,1.4,1.4c-0.1,1.4,0,2.8,0,4.2c4.7-1.4,6.9,0.3,7.1,5.2c0.2,4.2-0.7,6-3.5,7C210.3,340.3,209.6,340.3,209,339.9z"/>
<path class="st6" d="M439.8,339.9c-0.9-0.2-1.7-0.9-2.9-0.2c-0.9,0.5-2,0.2-2-1.5c0.1-4.8,0.1-9.6,0-14.4c0-1.1,0.1-1.8,1.5-1.8
	c1.5,0,1.5,0.7,1.5,1.8c0,1.2,0,2.5,0,3.8c4.3-1,5.7-0.4,6.8,3c1.3,4,0,8.1-3.1,9.2C441.1,340.3,440.4,340.3,439.8,339.9z"/>
<path class="st6" d="M413.1,339.9c-1.9-0.5-3.5-1.3-4-3.3c-0.1-0.6-0.9-1.6,0.2-1.9c0.9-0.2,2.2-0.6,2.5,0.9c0.3,1.6,1.4,2,2.7,2
	c1.2,0,2.3-0.2,2.5-1.6c0.2-1.3-0.4-2.2-1.5-2.6c-1.3-0.5-2.5-1-3.7-1.8c-2.2-1.6-3.1-3.4-2.4-5.4c0.8-2.4,2.9-3.8,5.4-3.6
	c2,0.1,3.6,0.8,4.4,2.7c0.3,0.8,1.2,1.7,0.2,2.3c-0.7,0.4-2,0.6-2.6-0.8c-0.5-1.3-1.6-1.4-2.8-1.3c-1,0.1-1.7,0.5-1.9,1.6
	c-0.1,1,0.1,1.8,1,2.2c1.1,0.5,2.4,0.8,3.5,1.4c2.2,1,3.3,2.9,3.1,5.3c-0.1,2.3-1.6,3.3-3.6,3.9
	C415.3,340.4,414.2,340.4,413.1,339.9z"/>
<path class="st7" d="M332.4,333.6c0-1.6,0-3.2,0-4.9c0-1.3,1.7-2.3,2.3-1.3c1,1.6,1.4,0.3,2,0c2.6-1.4,5.3,0.1,5.7,3.4
	c0.3,2.6,0.1,5.3,0.1,8c0,1.2-0.8,0.9-1.5,1c-0.8,0-1.5,0-1.4-1.1c0-2.1,0-4.1,0-6.2c0-1.5-0.3-2.6-2.2-2.6c-1.9,0-2.1,1.2-2,2.7
	c0.1,2,0,4,0,6c0,1.2-0.6,1.3-1.5,1.3c-1,0-1.5-0.2-1.5-1.3C332.4,336.9,332.4,335.2,332.4,333.6z"/>
<path class="st8" d="M330.2,411.1c1.6-2.9,2.2-5.6,3.2-8.1c0.4-1,0.6-2,2-1.8c1.5,0.2,0.9,1.4,0.9,2.1c0.1,3.1,0,6.2,0,9.3
	c0,0.6,0.2,1.4-0.9,1.4c-1.1,0-0.8-0.8-0.8-1.5c0-2.3,0-4.6-0.4-7c-0.7,1.8-1.4,3.7-2.1,5.5c-0.4,1.1-0.3,2.9-1.8,2.9
	s-1.4-1.9-1.8-2.9c-0.7-1.7-1.3-3.4-2.4-5.1c0,2.2,0,4.4,0,6.6c0,0.6,0.2,1.4-0.8,1.5c-1.1,0.1-0.9-0.8-0.9-1.4c0-3.3,0-6.7,0-10
	c0-0.6-0.3-1.4,0.8-1.5c1-0.1,1.5,0.3,1.8,1.2C328.1,405.1,329.1,407.8,330.2,411.1z"/>
<path class="st7" d="M293.6,333.7c0-4.6,3.3-7.6,7.1-6.5c2.2,0.7,4.2,4.5,3.5,6.7c-0.3,0.9-0.9,0.7-1.4,0.7c-1.5,0-3.1,0.1-4.7,0
	c-1.6-0.1-1.6,0.6-1,1.7c1,1.9,2.7,1.6,4.2,1c0.9-0.4,1.7-0.8,2.2,0.3c0.5,1.1-0.6,1.4-1.2,1.7C298.2,341.6,293.3,338.7,293.6,333.7
	z"/>
<path class="st7" d="M323.8,339.9c-3.3-1.1-4.4-2.5-4.4-5.8c-0.1-3.2,1.4-6,3.5-6.8c1.7-0.6,3.5-0.6,4.8,0.6
	c1.6,1.5,2.4,3.5,2.2,5.8c-0.1,1-0.8,0.9-1.5,0.9c-1.5,0-3.1,0-4.7,0c-1.4,0-1.5,0.5-1,1.6c0.8,1.8,2.3,1.6,3.8,1.3
	c1-0.2,2.2-1.5,2.7,0.2c0.4,1.3-1.2,1.5-2.1,2c-0.2,0.1-0.4,0.1-0.6,0.2C325.6,340.4,324.7,340.4,323.8,339.9z"/>
<path class="st6" d="M383.3,334.1c0-3.5,1.5-6.1,3.4-6.8c2.4-0.9,4.3-0.2,5.9,2c2.8,3.8,1.1,9.3-3.2,10.7c-2.1,0.7-5-1-5.7-3.4
	C383.4,335.6,383.4,334.5,383.3,334.1z"/>
<path class="st7" d="M425.1,339.9c-1.7-0.4-2.5-1.5-2.7-3.1c-0.5-2.8-0.2-5.6-0.2-8.4c0-1.3,0.9-1.1,1.7-1.1c0.9,0,1.3,0.3,1.3,1.3
	c0,2.3,0,4.6,0,6.9c0,1.4,0.4,2.3,2,2.2c1.5-0.1,2.1-0.9,2-2.3c0-2.2,0-4.4,0-6.6c0-1,0.3-1.5,1.4-1.5c1,0,1.6,0.2,1.6,1.5
	c-0.1,3.2-0.1,6.5,0,9.7c0,1.8-1.5,1.8-2,1.3c-1.3-1.4-2.2,0-3.2,0.2C426.4,340.3,425.8,340.3,425.1,339.9z"/>
<path class="st5" d="M396.4,333.5c0-1.5,0-3,0-4.4c0-0.7-0.4-1.6,0.8-1.8c0.7-0.1,1.7-0.5,2,0.7c0.2,0.6,0.3,0.7,0.8,0.1
	c1.2-1.3,2.7-1.5,4.2-0.9c1.7,0.7,2.1,2.3,2.2,3.8c0.2,2.5,0,5,0.1,7.5c0,1-0.5,1.2-1.4,1.2c-1,0-1.5-0.2-1.5-1.3
	c0.1-1.9,0-3.8,0-5.8c0-1.5-0.1-2.9-2.2-2.9c-2,0-2.2,1.2-2.2,2.8c0.1,1.9,0,3.8,0,5.8c0,1.1-0.3,1.4-1.4,1.4s-1.7-0.2-1.6-1.5
	C396.5,336.8,396.4,335.1,396.4,333.5z"/>
<path class="st6" d="M194.3,339.9c-1.8-0.4-2.6-1.7-2.7-3.4c-0.1-2.6-0.1-5.3-0.2-8c0-1.2,0.6-1.3,1.6-1.3c1,0,1.4,0.3,1.4,1.4
	c-0.1,2.3,0,4.6,0,6.9c0,1.3,0.4,2.2,1.9,2.1c1.4,0,2.2-0.7,2.1-2.2c-0.1-2.2,0-4.4,0-6.6c0-1.1,0.4-1.5,1.5-1.5
	c1.1,0,1.6,0.4,1.5,1.5c-0.1,3.2-0.1,6.4,0,9.5c0.1,1.9-1.6,1.9-2.1,1.4c-1.2-1.4-1.9-0.2-2.8,0.1
	C195.9,340.4,195.1,340.3,194.3,339.9z"/>
<path class="st6" d="M143.6,339.9c-2.9-0.7-3.7-2.9-3.9-5.5c-0.3-2.9,0.6-5.3,3-6.9c2.1-1.4,4.6-0.5,6.3,1.7
	c2.7,3.6,1.4,9.2-2.6,10.7C145.5,340.4,144.6,340.4,143.6,339.9z"/>
<path class="st6" d="M183.8,327c1.5,0.1,3,0.4,4,2c0.4,0.6,1.2,1.3,0.5,1.9c-0.6,0.5-1.6,0.3-2.3,0c-0.3-0.1-0.4-0.6-0.7-0.8
	c-0.9-0.7-1.9-0.6-2.9-0.2c-0.4,0.2-0.8,0.6-0.6,1c0.4,0.9,1.2,1.5,2.1,1.7c1.2,0.2,2.3,0.4,3.4,1c1.8,1.1,2.1,3.4,0.7,4.9
	c-2.1,2.2-6.9,1.9-8.7-0.5c-0.5-0.6-1.2-1.6-0.4-2.1c0.7-0.4,2-0.9,2.6,0.6c0.2,0.6,0.7,1,1.3,1.1c1.3,0.3,2.8,0.5,3.2-1
	c0.5-1.5-1.1-1.6-2.1-1.9c-0.4-0.1-0.9-0.2-1.3-0.3c-2.8-0.8-3.8-2-3.5-4C179.1,328.4,181.1,326.9,183.8,327z"/>
<path class="st9" d="M155.6,329.2c1.5-2,3-2.6,4.9-2c1.8,0.7,2.2,2.3,2.3,3.9c0.1,2.4,0,4.9,0.1,7.3c0,1.1-0.4,1.4-1.4,1.4
	c-1,0-1.5-0.3-1.4-1.4c0.1-2.1,0-4.1,0-6.2c0-1.5-0.5-2.4-2.2-2.4c-1.6,0-2.2,0.9-2.1,2.4c0.1,2.1,0,4.1,0,6.2
	c0,1.1-0.5,1.4-1.4,1.4c-1,0-1.4-0.3-1.4-1.4c0.1-3.1,0-6.2,0-9.3c0-0.7-0.5-1.8,0.9-1.9C154.9,327.2,156.1,327,155.6,329.2z"/>
<path class="st10" d="M210.2,356.4c0.3,0,0.6,0,1,0c0,8,0,16-0.1,24c0,1.6,0.6,1.8,1.9,1.8c9.2,0,18.4,0.1,27.6-0.1
	c2.2,0,2.9,0.6,2.6,2.7c-0.2,1.7,0.2,3.5-0.3,5.6c-0.9-1.6-0.6-3-0.5-4.3c0.2-2.1-0.4-2.8-2.6-2.7c-9,0.1-18.1,0-27.1,0.1
	c-2.1,0-2.4-0.6-2.4-2.5C210.3,372.8,210.2,364.6,210.2,356.4z"/>
<path class="st7" d="M252.1,327.4c0.4,1.9-0.2,2.8-2.2,2.5c-1.4-0.2-2,0.4-1.9,1.9c0.1,0.8,0,1.6,0,2.4c0,2.7,0.1,3.9,3.3,3.4
	c0.6-0.1,1.2,0,1.3,0.8c0.2,1.4-0.8,1.3-1.7,1.5c-1.1,0.5-2.1,0.5-3.2,0c-1.8-0.6-2.6-1.9-2.6-3.7c0-1.3,0-2.6,0-4
	c0-1.2,0.3-2.6-1.8-2.4c-0.8,0.1-0.9-0.6-0.9-1.2c0-0.6,0-1.4,0.8-1.3c2.3,0.3,1.7-1.4,1.9-2.6c2.2-0.8,2.6-0.7,2.8,1.2
	c0.1,1,0.6,1.2,1.4,1.2C250.3,327.2,251.2,326.9,252.1,327.4z"/>
<path class="st7" d="M478.5,339.8c-1.9-0.6-2.6-2-2.6-3.9c0-1.2,0-2.5,0-3.8c0-1.3,0.2-2.6-1.8-2.4c-0.8,0.1-0.9-0.6-0.8-1.3
	c0-0.6,0-1.4,0.8-1.2c2.3,0.3,1.7-1.4,1.9-2.6c2.2-0.8,2.4-0.7,2.8,1.5c0.1,0.8,0.5,0.9,1.2,1c1,0.1,2-0.3,3,0.3
	c0.5,2-0.4,2.7-2.3,2.4c-1.4-0.2-1.9,0.4-1.8,1.8c0.1,0.7,0,1.5,0,2.2c0,3.4,0,3.4,3.4,3.7c0.6,0,1,0.1,1.1,0.8
	c0.1,0.7,0,1.2-0.8,1.4c-0.4,0.1-0.9,0.1-1.3,0.2C480.3,340.4,479.4,340.4,478.5,339.8z"/>
<path class="st11" d="M350.4,339.9c-2-0.5-2.7-1.9-2.7-3.8c0-1.1,0-2.2,0-3.3c0-1.4,0.6-3.1-2-3c-0.8,0-0.6-0.9-0.6-1.4
	c0-0.5,0-1.2,0.7-1.1c2.3,0.3,1.7-1.4,1.9-2.6c0.9-0.6,1.8-0.6,2.6,0c-0.3,2.1,0.7,2.9,2.8,2.5c0.8-0.1,1.6-0.1,1.6,1.1
	c0,1.3-0.6,1.6-1.6,1.4c-2.3-0.4-3,0.6-2.7,2.8c0.1,0.9,0,1.8,0,2.6c0,1.6,0.8,2.5,2.5,2.3c0.9-0.1,2.1-0.5,2.1,1
	c0,1.4-1.2,1-1.9,1.2C352.3,340.4,351.4,340.4,350.4,339.9z"/>
<path class="st6" d="M119.7,335.6c0.7-2.4,1.5-4.8,2.1-7.2c0.4-1.6,1.5-1.3,2.4-1.1c1.5,0.2,0.5,1.3,0.3,1.9c-1,3.1-2.1,6.1-3.1,9.2
	c-0.3,0.9-0.7,1.5-1.8,1.5c-1.2,0-1.7-0.5-2-1.5c-1-3.1-2.1-6.1-3.1-9.2c-0.2-0.6-0.9-1.5,0.2-1.8c0.9-0.2,2.2-0.6,2.5,1.2
	c0.5,2.4,1.4,4.8,2.1,7.2C119.3,335.7,119.5,335.6,119.7,335.6z"/>
<path class="st6" d="M71.5,410.1c0-2.4,0-4.9,0-7.3c0-0.7-0.3-1.6,0.9-1.5c1.1,0,0.8,0.9,0.8,1.5c0,3.2,0,6.5,0,9.8
	c0,0.6,0.4,1.4-0.6,1.6c-0.9,0.2-1.3-0.4-1.8-1c-1.3-2.1-2.6-4.3-3.9-6.4c-0.3-0.5-0.7-1-1.3-2c0,3,0,5.5,0,7.9c0,0.7,0.2,1.6-1,1.5
	c-1.1-0.1-0.8-0.9-0.8-1.5c0-3.2,0-6.4,0-9.5c0-0.6-0.5-1.6,0.6-1.8c1-0.2,1.4,0.5,1.9,1.2c1.5,2.6,3.1,5.1,4.6,7.7
	C71.2,410.1,71.4,410.1,71.5,410.1z"/>
<path class="st6" d="M312,335.7c0.7-2.4,1.5-4.7,2-7.2c0.4-1.8,1.6-1.4,2.5-1.2c1.2,0.2,0.5,1.1,0.2,1.8c-1,3.1-2.1,6.1-3.1,9.2
	c-0.3,1-0.8,1.5-2,1.5c-1.2,0-1.5-0.6-1.8-1.5c-1-3.1-2.1-6.1-3.1-9.2c-0.2-0.6-0.9-1.5,0.2-1.8c0.9-0.2,2.2-0.6,2.6,1.1
	c0.6,2.4,1.3,4.8,2,7.2C311.6,335.7,311.8,335.7,312,335.7z"/>
<path class="st12" d="M239.7,409.3c0-1.2,0-2.4,0-3.5c0-0.6,0.4-1.6,0.8-1.2c1.8,1.5,4.1-1.6,5.6,0.9c0.3,0.5,0.8-0.4,1.2-0.6
	c2.2-1.1,4.1-0.1,4.2,2.4c0.1,1.8,0,3.7,0,5.5c0,0.6,0.1,1.4-0.9,1.4c-1-0.1-0.8-0.9-0.8-1.5c0-1.5,0-3,0-4.4c0-1.1-0.1-2.2-1.5-2.2
	c-1.5,0-1.7,1.1-1.7,2.3c0,1.5,0,3.1,0,4.7c0,0.6,0,1.2-0.9,1.2c-0.9,0-0.8-0.7-0.8-1.2c0-1.6,0-3.2,0-4.9c0-1.1-0.3-2-1.5-2
	c-1.2-0.1-1.7,0.8-1.8,1.9c-0.1,1.6-0.1,3.2-0.2,4.9c0,0.6,0.2,1.4-0.9,1.4c-1.1,0-0.9-0.8-0.9-1.4
	C239.7,411.5,239.7,410.4,239.7,409.3z"/>
<path class="st13" d="M84.8,409.3c0-0.9-0.1-1.8,0-2.7c0.1-1-0.9-3.3,1.9-1.6c0.6,0.4,1.8-1.2,2.8-0.5c1.3,0.8,2.2,0.8,3.6,0.1
	c1.6-0.8,3.3,0.4,3.5,2.3c0.2,2.1,0.1,4.1,0.1,6.2c0,0.6-0.1,1-0.8,1c-0.9,0-0.9-0.6-0.9-1.2c0-1.7,0-3.4-0.1-5.1
	c-0.1-1-0.4-2-1.7-1.9c-1.3,0-1.5,1-1.7,2c-0.1,0.6,0.1,1.2-0.1,1.8c-0.5,1.5,1.2,4.2-0.9,4.2c-1.8,0-0.4-2.8-0.8-4.3
	c-0.1-0.6,0-1.2-0.1-1.8c0-1-0.3-1.8-1.5-1.8c-1,0-1.7,0.6-1.7,1.7c-0.1,1.8-0.1,3.5-0.1,5.3c0,0.6,0,1.2-0.9,1.2
	c-0.9,0-0.8-0.6-0.8-1.2C84.8,411.7,84.8,410.5,84.8,409.3z"/>
<path class="st9" d="M467.5,332.4c0,0.8,0,1.6,0,2.4c-0.1,1.6-0.2,3,2.2,2.7c0.8-0.1,0.9,0.5,0.9,1.1c0,0.7-0.2,1.1-1,1.1
	c-2.4,0-4.9,0-7.3,0c-0.8,0-1-0.5-1-1.1s0.2-1.3,1-1.1c2.6,0.5,2.4-1.3,2.4-3c0-0.7,0-1.3,0-2c0.1-1.6,0.1-3-2.2-2.6
	c-0.9,0.2-1.2-0.4-1.1-1.2c0-0.7-0.1-1.6,1-1.5c0.1,0,0.3,0,0.4,0C467.5,326.9,467.5,326.9,467.5,332.4z"/>
<path class="st14" d="M226.2,413.1c-2.6,1.4-4.7,1-5.7-1.2c-1.2-2.5-0.2-6.3,1.9-7.2c0.9-0.4,1.7-0.5,2.6,0c0.7,0.4,1.1,0.9,1.8-0.1
	c0.4-0.5,1.3-0.2,1.3,0.8c0,3.3,0.1,6.6-0.1,10c-0.1,1.5-1.3,2.2-2.7,2.6c-1.6,0.4-3.1,0.1-4.3-1c-0.2-0.2-0.5-0.5-0.3-0.7
	c0.1-0.2,0.5-0.4,0.7-0.4c0.2,0,0.5,0.1,0.8,0.2C225.4,417.3,226.4,416.7,226.2,413.1z"/>
<path class="st11" d="M236.7,332.3c0,1,0,1.9,0,2.9c-0.1,1.4-0.1,2.7,2,2.4c0.9-0.1,1.1,0.4,1.1,1.2c0,0.7-0.2,1.1-1,1.1
	c-2.4,0-4.7,0-7.1,0c-0.9,0-1.1-0.4-1.1-1.2c0-0.9,0.5-1.2,1.3-1.1c2,0.4,2.2-0.8,2.1-2.3c-0.1-0.9-0.1-1.8,0-2.6
	c0.1-1.6,0-3-2.2-2.5c-0.9,0.2-1.1-0.4-1.1-1.2c0-0.8-0.1-1.5,1.1-1.5c1.3,0,2.7,0,4,0c0.9,0,1.1,0.5,1.1,1.3
	C236.7,329.8,236.7,331,236.7,332.3z"/>
<path class="st15" d="M285.6,329.2c0.9-1.5,2-2.1,3.3-2.1c0.9,0,2.3-0.5,2.3,1.2c0,1.3-0.1,2.4-2,2.2c-3.1-0.2-3.6,0.5-3.7,3.5
	c0,1.4,0,2.8,0,4.2c0,1,0,1.6-1.4,1.6c-1.3,0-1.6-0.4-1.6-1.7c0.1-3,0-5.9,0-8.9c0-0.8-0.5-1.9,0.9-2.1
	C284.8,327.1,285.9,327.2,285.6,329.2z"/>
<path class="st16" d="M354.3,405.5c0-1.3,0-2.3,0-3.4c0-0.5,0.1-0.9,0.7-0.9c0.6,0,1,0.2,1,0.9c0,3.7,0,7.4,0,11.1
	c0,0.6-0.6,1.2-0.9,0.9c-1.2-1.3-2,0.1-3,0.1c-1.7,0.1-2.9-0.5-3.6-2c-1-1.9-0.6-5.7,0.8-6.9c1.3-1.2,2.7-1.3,4.2-0.3
	C353.7,405.2,353.9,405.3,354.3,405.5z"/>
<path class="st17" d="M203.6,414.1c-0.6,0-0.9-0.1-0.7-0.9c1.2-3.6,2.3-7.3,3.5-11c0.2-0.7,0.6-1,1.5-1c1,0,1.2,0.6,1.5,1.4
	c1,3.4,2.1,6.8,3.1,10.1c0.1,0.5,0.8,1.1-0.2,1.4c-0.8,0.2-1.2-0.2-1.5-0.9c-0.4-1.2-0.4-2.7-2.5-2.6c-1.9,0-3.1,0.3-3.4,2.4
	C204.8,413.6,204.5,414.2,203.6,414.1z"/>
<path class="st18" d="M451.3,401.5c-1.2,3.8-2.4,7.6-3.6,11.3c-0.2,0.7-0.5,1.3-1.5,1.3c-1,0-1.3-0.6-1.5-1.3
	c-1.1-3.4-2.2-6.7-3.1-10.1c-0.1-0.4-1.1-1.2,0.2-1.5c0.9-0.2,1.3,0.3,1.5,1.2c0.9,3,1.8,6.1,2.9,9.5c1-3.4,2-6.3,2.8-9.3
	C449.4,401.4,449.9,400.9,451.3,401.5z"/>
<path class="st19" d="M458.9,410.2c0,3.9,0,3.9-4.1,4c-1.6,0.1-2.8-0.5-3-2.2c-0.3-1.7,0.5-2.9,2.2-3.2c0.5-0.1,1-0.1,1.5-0.3
	c0.6-0.2,1.6,0.1,1.6-1c0-0.5,0-1-0.5-1.4c-0.8-0.5-1.6-0.4-2.3,0c-0.3,0.2-0.5,0.5-0.7,0.8c-0.5,0.7-0.8,0.3-1.3,0
	c-0.6-0.4-0.4-0.7,0-1.2c1.3-1.4,2.9-1.7,4.6-1.2c1.6,0.5,2,1.8,1.9,3.3C458.9,408.7,458.9,409.4,458.9,410.2z"/>
<path class="st15" d="M75.9,406.6c0.4-2.1,2-2.2,3.6-2.2c1.6,0.1,2.9,0.9,3,2.6c0.1,2,0.1,4,0.1,6c0,0.5-0.1,1.3-0.7,1
	c-1.4-0.8-2.5,0.2-3.7,0.2c-1.5-0.1-2.6-0.6-2.8-2.2c-0.2-1.7,0.4-2.9,2.2-3.2c0.6-0.1,1.2-0.2,1.8-0.3c1-0.1,1.8-0.3,1.4-1.6
	c-0.3-1.1-1.1-1.3-2.1-1c-0.5,0.1-0.9,0.5-1.3,0.7C76.9,406.9,76.4,406.9,75.9,406.6z"/>
<path class="st20" d="M472.5,409.5c0,0.8,0,1.6,0,2.4c0,1.8,0,1.7-1.8,1.3c-0.3-0.1-0.7,0.4-1.1,0.6c-2.1,1-4,0.1-4.3-2.1
	c-0.2-2-0.1-4.1-0.1-6.2c0-0.6,0.2-1,0.9-1c0.7,0,0.9,0.4,0.9,1c0,1.6,0,3.2,0,4.9c0,1.3,0.4,2.3,1.8,2.3c1.2,0,1.9-0.9,1.9-2
	c0.1-1.6,0.1-3.2,0.2-4.9c0-0.6-0.1-1.3,0.8-1.3c0.8,0,0.9,0.6,0.9,1.2C472.5,407,472.5,408.2,472.5,409.5z"/>
<path class="st21" d="M263.3,409.4c0-0.8,0-1.6,0-2.4c0-2,0-1.9,1.9-1.6c0.3,0.1,0.7-0.4,1.1-0.6c2.1-1,4,0,4.3,2.2
	c0.2,2,0.1,4.1,0.1,6.2c0,0.6-0.2,1-0.9,1c-0.7,0-0.9-0.4-0.9-1c0-1.5,0-3,0-4.4c0-1.2,0-2.7-1.8-2.7c-1.8,0-1.9,1.5-2,2.6
	c-0.2,1.3,0,2.7-0.1,4c0,0.6,0.3,1.5-0.8,1.5c-1.2,0-0.9-0.9-0.9-1.6C263.3,411.4,263.3,410.4,263.3,409.4z"/>
<path class="st8" d="M346.4,409.7c-0.1,3.1-1.5,4.6-4.2,4.5c-2.5-0.1-3.9-1.9-3.9-4.9c0.1-3.1,1.6-5,4.1-5
	C345.1,404.4,346.5,406.3,346.4,409.7z"/>
<path class="st19" d="M474.4,409.9c0-3.2,1-4.8,3-5.4c2.8-0.8,5.6,1.8,4.9,4.6c-0.2,0.7-0.7,0.7-1.2,0.7c-1,0-2.1,0-3.1,0
	c-0.7,0.1-1.8-0.5-1.8,0.9c0,1.1,0.6,1.8,1.6,2.1c1,0.2,1.9-0.1,2.6-0.8c0.4-0.4,1.1-0.3,1.4,0.1c0.3,0.4-0.2,0.8-0.5,1.1
	c-1.4,1.3-3,1.2-4.6,0.7C474.7,413.2,474.3,411.3,474.4,409.9z"/>
<path class="st8" d="M379.6,412c-0.9,2.2-2.7,2.4-4.5,2.1c-1.7-0.2-2.7-1.3-3-3.1c-0.3-1.4-0.2-2.8,0.2-4.2c0.6-1.9,2.6-2.9,4.6-2.4
	c1.9,0.5,3.2,2.7,2.8,4.5c-0.1,0.7-0.6,0.8-1.1,0.8c-1,0-1.9-0.1-2.9,0c-0.7,0.1-2-0.7-2,0.9c0,1.3,0.8,2,2.1,2.1
	c0.7,0,1.4-0.1,1.8-0.6C378.2,411.7,378.8,411.8,379.6,412z"/>
<path class="st15" d="M98.6,409.8c0-3,1-4.7,2.9-5.3c2.8-0.8,5.6,1.8,5,4.5c-0.2,0.7-0.6,0.7-1.1,0.7c-1,0-2.1-0.1-3.1,0
	c-0.7,0.1-1.8-0.6-1.8,0.8c0,1.2,0.6,2,1.8,2.1c0.8,0.1,1.5,0,2.1-0.5c0.6-0.5,1.4-0.7,1.7-0.2c0.4,0.6-0.4,1.2-0.9,1.5
	c-1.4,0.9-3,0.9-4.4,0.1C98.9,412.9,98.6,411.2,98.6,409.8z"/>
<path class="st14" d="M261.3,412.1c-1,2.2-2.8,2.3-4.6,2c-1.7-0.3-2.6-1.4-3-3.1c-0.3-1.5-0.1-3,0.4-4.3c0.7-1.8,2.8-2.6,4.6-2.1
	c1.8,0.5,3,2.5,2.7,4.3c-0.1,0.8-0.6,0.9-1.2,0.9c-1,0-1.9-0.1-2.9,0c-0.7,0.1-1.8-0.5-1.9,0.8c-0.1,1.1,0.5,2,1.8,2.2
	c0.8,0.1,1.5,0.1,2.1-0.5C259.9,411.8,260.5,411.7,261.3,412.1z"/>
<path class="st22" d="M237.5,409.4c0,1,0,1.9,0,2.9c0,1.5,0,1.5-1.6,0.9c-0.6-0.2-0.7,0.3-1.1,0.5c-2.3,1.1-4.3,0.1-4.5-2.4
	c-0.1-1.9,0-3.9,0-5.8c0-0.5,0-1.1,0.8-1.1c0.8-0.1,1,0.5,1,1.1c0,1.7,0,3.4,0,5.1c0,1.1,0.5,1.9,1.7,1.9c1.1,0,1.9-0.7,2-1.9
	c0-1.5,0-3.1,0.1-4.7c0-0.6-0.1-1.5,0.8-1.5c1.2-0.1,0.9,1,0.9,1.6C237.5,407.2,237.5,408.3,237.5,409.4z"/>
<path class="st23" d="M64.9,448.8c-0.7,2-0.1,4.1-0.7,6c-0.2,0-0.4,0-0.6,0c0-2.9,0-5.8,0-8.6c0-0.3,0.3-0.5,0.6-0.5
	c0.7,0,0.8,0.5,1,1c0.8,2.1,1.6,4.3,2.5,6.8c0.9-2.3,1.6-4.2,2.3-6.1c0.2-0.7,0.2-1.7,1.2-1.6c1.2,0.1,0.6,1.3,0.7,2
	c0.1,2.4,0,4.7-0.3,7.1c-0.9-1.8-0.4-3.8-0.8-6c-1.2,1.6-1.3,3.2-2,4.6c-0.3,0.5-0.2,1.5-1.2,1.4c-0.8,0-0.8-0.8-1-1.3
	C66.1,452,65.5,450.4,64.9,448.8z"/>
<path class="st16" d="M392.6,406.5c-0.5-0.6-1.2-0.9-2-0.8c-0.6,0.1-1.1,0.4-1.2,1.1c0,0.6,0.1,1.2,0.8,1.4c0.8,0.2,1.6,0.4,2.4,0.6
	c1.1,0.4,1.8,1.1,1.9,2.5c0,1.3-0.5,2.2-1.7,2.6c-1.5,0.5-3.1,0.6-4.4-0.5c-0.5-0.4-1-0.9-0.5-1.5c0.4-0.4,1-0.4,1.4,0.1
	c0.5,0.5,1,0.8,1.7,0.8c0.8,0,1.5-0.1,1.6-1.1c0.1-0.9-0.3-1.4-1.2-1.6c-0.3-0.1-0.6-0.1-0.9-0.2c-1.4-0.4-2.8-0.8-2.9-2.6
	c-0.1-1.2,0.4-2.2,1.6-2.6c1.5-0.6,3-0.6,4.3,0.5c0.3,0.3,0.4,0.8,0.6,1.1C393.7,407.1,393.2,407,392.6,406.5z"/>
<path class="st24" d="M362.9,409.7c-0.4-1.3,0.8-3.1-1.1-4.4c-0.8-0.5,2.7-4.7,4-4.6c0.4,0,1-0.1,1,0.5c0.1,0.5-0.2,0.9-0.8,0.9
	c-0.9,0-1.3,0.5-1.4,1.4c-0.1,0.9,0.5,0.9,1.1,1c0.3,0,0.5,0.2,0.6,0.6c0.1,0.5-0.2,0.7-0.6,0.7c-1.2,0-1.1,0.9-1.1,1.7
	c0,1.9,0,3.7,0,5.5c0,0.5,0.1,1.1-0.7,1.1c-0.8,0-1-0.4-1-1.1C362.9,411.9,362.9,410.9,362.9,409.7z"/>
<path class="st25" d="M324.1,434.4c0-0.6-0.1-1.2,0-1.8c0.3-1-0.9-2.7,0.9-2.9c1.8-0.2,3.9-0.5,5,1.7c1,1.9,1.2,3.9,0.2,5.7
	c-0.9,1.6-2.4,2.4-4.4,2.3c-1.3-0.1-1.9-0.4-1.8-1.8C324.2,436.6,324.1,435.5,324.1,434.4z"/>
<path class="st7" d="M363,336.8c-1.1,0-2.2,0-3.3,0c-1.1,0.1-1.6-0.2-1.6-1.5c0-1.2,0.6-1.3,1.5-1.3c2.4,0,4.7,0,7.1,0
	c1,0,1.5,0.2,1.5,1.3c0,1-0.3,1.5-1.4,1.4C365.5,336.7,364.3,336.8,363,336.8z"/>
<path class="st26" d="M133,333.9c-0.9,0-1.9,0-2.9,0c-1.2,0.1-1.5-0.5-1.5-1.6c0-1.1,0.5-1.4,1.5-1.4c2,0,4,0,5.9,0
	c1,0,1.4,0.3,1.4,1.4c0,1-0.1,1.7-1.4,1.6C135.1,333.9,134,333.9,133,333.9z"/>
<path class="st22" d="M277.2,404.6c-0.3,0.6-0.4,0.9-0.5,1c-2.6,0.4-1.3,2.4-1.4,3.7s-0.9,3.1,1.4,3.6c0.1,0,0.3,0.5,0.3,0.8
	c0,0.5-0.5,0.5-0.8,0.5c-1.6,0.1-2.5-0.7-2.6-2.3c-0.1-1.2,0-2.5,0-3.8c0-0.4,0.2-1.1,0-1.3c-1.9-1.4,0.1-2.7,0.1-4
	c0-0.8,0.8-1,1.2-0.7C275.6,403,274.8,405.1,277.2,404.6z"/>
<path class="st27" d="M506.5,432.2c0,1.3,0,2.6,0,4c0,0.7-0.2,0.8-0.9,0.3c-0.5-0.4-0.6-0.2-0.8,0.1c-1.3,1.4-2.3,0.6-3.2-0.5
	c-1.1-1.4-1.1-3-0.4-4.6c0.6-1.5,1.9-1.6,3.3-1.4c1.3,0.2,0.6-0.9,0.8-1.5c0.1-0.4,0-1,0.6-1c0.8,0,0.6,0.7,0.6,1.1
	C506.5,429.8,506.5,431,506.5,432.2L506.5,432.2z"/>
<path class="st28" d="M228.2,432.6c2,0.9,1.2,3,2.3,4.3c0.8-1.1,0.6-2.4,1-3.5c0.2-0.5,0.2-1.1,0.9-1c0.6,0,0.6,0.6,0.8,1
	c0.4,1,0.2,2.3,1.1,3.4c0.7-1.5,0.5-3.3,2-4.9c-0.1,3.1-1.1,5.2-1.9,8c-1.4-2-1.3-3.9-2.2-5.7c-0.4,1.6-0.8,3-1.1,4.4
	c-0.1,0.4-0.2,0.8-0.6,0.8c-0.5,0-0.6-0.3-0.7-0.7C229.3,436.6,228.7,434.6,228.2,432.6z"/>
<path class="st23" d="M63.7,437c1,0.7,1.8,1.5,3.2,1.2c0.7-0.2,1.3-0.5,1.4-1.2c0.1-0.7-0.4-1-0.9-1.3c-0.6-0.4-1.2-0.7-1.9-1
	c-1.3-0.5-2.2-1.3-1.8-2.8c0.4-1.4,1.2-2.1,2.7-2.1c1.7,0,2.6,0.7,2.8,2.5c-0.9,0.3-1.2-0.5-1.5-1c-0.5-0.8-1.1-0.7-1.7-0.5
	c-0.8,0.2-1.2,0.9-1.3,1.6c-0.1,0.8,0.6,1.1,1.2,1.4c0.4,0.2,0.8,0.3,1.3,0.4c1.7,0.4,2.4,1.6,2.1,3.1c-0.2,1.3-1.1,2.3-2.7,2.4
	C64.7,439.6,63.8,438.8,63.7,437z"/>
<path class="st25" d="M157.7,453.1c0.9-1.8,0.7-3.5,2.3-4.5c-0.5,2-0.9,4-1.6,5.9c-0.4,1-1.1,0.5-1.3-0.3c-0.4-1.2-0.7-2.5-1.2-4.2
	c-0.5,1.7-0.8,2.9-1.2,4.1c-0.1,0.4-0.2,0.9-0.8,0.8c-0.4-0.1-0.5-0.5-0.6-0.8c-0.5-1.9-1-3.8-1.7-6.2c2.1,1.5,1.4,3.6,2.4,5
	c0.8-0.7,0.4-1.8,0.8-2.7c0.3-0.6,0.1-1.7,1-1.8c1,0,0.9,1,1.1,1.7C157.2,450.9,157.4,451.7,157.7,453.1z"/>
<path class="st29" d="M523,452.7c-1.9-0.7-0.7,0.9-1,1.4c-0.2,0.4,0.1,1.2-0.6,1.2c-0.8,0-0.6-0.7-0.6-1.2c0-1.5-0.2-3,0-4.4
	c0.1-1.2-0.9-3,0.7-3.4c1.6-0.4,3.9-1.1,4.8,1.5c0.7,2.1,0.1,3.9-2,5C523.9,453,523.5,453,523,452.7z"/>
<path class="st30" d="M367.8,432.6c0.5-0.8-0.2-1.9,0.5-2.7c0.5,0,0.6,0.3,0.6,0.7c0,2.6,0,5.1,0,7.7c0,0.8-0.1,1.6-1,0.4
	c-0.2-0.2-0.4-0.2-0.5-0.1c-1.1,1.4-2.1,1.3-3.2-0.1c-1.3-1.6-1.4-3.4-0.4-5.1c0.9-1.5,2.3-1.3,3.7-0.8
	C367.7,432.6,367.7,432.6,367.8,432.6z"/>
<path class="st31" d="M143.5,455.1c-2-1.1-2.7-2.7-2-4.7c0.5-1.8,1.7-2.4,3.6-2c1.6,0.3,0.5-1.1,0.8-1.6c0.2-0.4,0.1-1,0.7-0.9
	c0.5,0.1,0.4,0.5,0.4,0.9c0,2.4,0,4.9,0,7.3c0,1.9-1.9-0.4-2.1,1C144.5,455.4,144,455.4,143.5,455.1z"/>
<path class="st32" d="M462.9,407.7c0,1.8,0,3.5,0,5.3c0,0.5,0,1-0.7,1.1c-0.8,0-1-0.4-1-1.1c0-3.6,0-7.2,0-10.8c0-0.6,0.2-1,0.9-1
	c0.7,0,0.9,0.4,0.9,1C462.9,404,462.9,405.9,462.9,407.7z"/>
<path class="st7" d="M363.2,329.1c1.2,0,2.4,0,3.5,0c0.9,0,1.4,0.2,1.4,1.2c0,0.9-0.4,1.1-1.2,1.1c-2.5,0-5,0-7.5,0
	c-0.8,0-1.2-0.2-1.3-1.1c0-1,0.5-1.3,1.4-1.2C360.7,329.1,362,329.1,363.2,329.1z"/>
<path class="st33" d="M381.6,409.2c0-1,0-2.1,0-3.1c0-0.4,0-0.8,0.1-1.1c0.1-0.4,0.6-0.8,0.8-0.6c1.2,1.7,2.6-1,3.7,0.2
	c0.4,0.4,0.4,1.3-0.5,1.3c-2.4,0.1-2.3,1.9-2.4,3.5c-0.1,1.2,0,2.5,0,3.8c0,0.5-0.1,0.9-0.7,0.9c-0.6,0-1-0.2-1-0.9
	C381.6,411.9,381.6,410.6,381.6,409.2C381.6,409.2,381.6,409.2,381.6,409.2z"/>
<path class="st25" d="M467.5,438.5c-0.3,1.1,0.2,2.2-1,3.1c0-2.9,0-5.9,0-8.8c0-0.5,0.5-0.1,0.8-0.2c1.6-0.1,3.3-1,4.3,1
	c0.9,1.7,0.5,4-0.9,5.3C469.5,440.1,468.6,439.4,467.5,438.5z"/>
<path class="st28" d="M468.6,455c-1.1-0.3-1.8-0.9-1.9-2c1.1-0.5,1.1,0.7,1.6,0.9c1.2,0.4,2.5,0.6,3.1-0.7c0.5-1.1-0.4-1.9-1.5-2.2
	c-0.5-0.2-1-0.3-1.5-0.5c-1.4-0.5-2-1.6-1.6-3c0.5-1.7,1.9-2,3.4-1.8c1.4,0.2,2.2,0.9,2.1,2.5c-1.1,0.2-1-0.9-1.4-1.2
	c-0.7-0.5-1.4-0.5-2.1-0.3c-0.8,0.2-0.9,1-1,1.6c0,0.8,0.6,1.1,1.3,1.3c0.4,0.1,0.7,0.3,1.1,0.3c1.5,0.3,2.3,1.2,2.4,2.7
	c0,1.5-0.9,2.1-2.2,2.4C469.8,455.5,469.2,455.5,468.6,455z"/>
<path class="st34" d="M359.7,432.2c1.4,0,2.1,0.9,2.5,2.2c0.3,1.2,0,1.9-1.4,1.8c-0.6,0-1.2,0-1.8,0c-0.5,0-1.1-0.1-1.1,0.7
	c0,0.6,0.4,1,1,1c0.5,0.1,1,0,1.5-0.1c0.5,0,0.9-1.2,1.4-0.3c0.4,0.6-0.6,0.9-0.9,1.4c-0.3,0.5-0.9,0.4-1.4,0.4
	c-1.6,0-3-1.8-2.9-3.9C356.6,433.4,357.7,432.2,359.7,432.2z"/>
<path class="st35" d="M341.9,455.1c-1.9-1.1-2.5-2.7-1.9-4.8c0.6-1.9,1.8-2.4,3.6-1.8c0.8,0.3,0.9,0,0.9-0.7
	c0.1-0.7-0.3-1.4,0.9-2.4c0,3.3,0.1,6.1,0,8.9c-0.1,1.5-1.8-0.7-2.1,0.8C342.8,455.4,342.3,455.4,341.9,455.1z"/>
<path class="st36" d="M214.6,409.1c0-0.8,0-1.6,0-2.4c0.1-1.2-0.5-3.2,1.9-1.7c0.2,0.1,0.9-0.4,1.4-0.5c0.5-0.1,1.1-0.2,1.2,0.5
	c0.1,0.6-0.1,1-0.8,1c-1.8,0-1.9,1.3-1.9,2.6c0,1.5,0,3,0,4.4c0,0.6-0.2,1-0.9,1c-0.7,0-0.9-0.4-0.9-1
	C214.6,411.8,214.6,410.4,214.6,409.1C214.6,409.1,214.6,409.1,214.6,409.1z"/>
<path class="st37" d="M406.9,437.3c-1.3,2.6-2.8,2.9-4.4,1c-1.2-1.5-1.2-3.1-0.5-4.8c0.6-1.4,1.9-1.6,3.2-1.2
	c1.5,0.4,1.9,1.6,1.9,2.9c0,1.5-1.2,0.9-2,1s-1.7-0.3-2.3,0.4c-0.3,0.4,0,0.9,0.4,1.1c0.9,0.6,1.8,0.5,2.6-0.2
	C406.1,437.5,406.4,437.5,406.9,437.3z"/>
<path class="st38" d="M78.6,434.5c-0.3-3-2.1-0.6-3.5-0.7c0.4-1.3,1.3-1.5,2.3-1.6c1.2,0,2.2,0.4,2.3,1.6c0.2,1.6,0.3,3.2,0.1,4.8
	c-0.2,1.5-1.6,0.6-2.4,0.8c-1.3,0.4-2.1-0.4-2.5-1.5c-0.4-0.9-0.2-1.6,0.6-2.1c0.5-0.3,1.1-0.3,1.7-0.5
	C77.6,435,78.3,435,78.6,434.5z"/>
<path class="st35" d="M170.2,455.1c-2.3-0.8-2.4-2.6-2.1-4.5c0.2-1.3,1-2.3,2.5-2.3c1.7-0.1,3,1,3,2.8c0,1.9-1.6,1-2.5,1.2
	c-0.6,0.1-1.4-0.2-1.9,0.3c-0.1,0.1,0.1,0.7,0.2,1c0.5,0.7,1.2,0.6,2,0.6c0.6,0,1.2-1.4,1.6-0.5c0.4,0.9-0.8,1.2-1.5,1.4
	C171.1,455.4,170.7,455.4,170.2,455.1z"/>
<path class="st39" d="M228,471c-0.5,0-0.7-0.9-1.3-0.4c-0.8,0.6-0.9,0.1-0.9-0.5c0-2.8,0-5.5,0-8.8c1.4,1.2,0.6,2.3,1.1,3.2
	c1.6-0.5,3.3-0.8,4.2,1.3c0.8,2,0.2,3.8-1.7,5.1C228.9,471.4,228.5,471.4,228,471z"/>
<path class="st28" d="M136.9,455.1c-2-1.1-2.8-2.9-2-4.9c0.6-1.6,1.8-2.1,3.4-1.8c1.7,0.3,2,1.7,2,3c0,1.4-1.3,0.8-2.1,0.9
	c-0.8,0.2-1.7-0.4-2.2,0.4c-0.2,0.4,0.1,0.9,0.5,1.1c0.8,0.6,1.6,0.5,2.4,0c0.2-0.2,0.5-0.2,0.8-0.4c-0.2,1.2-0.2,1.2-1.4,1.8
	C137.8,455.4,137.3,455.4,136.9,455.1z"/>
<path class="st28" d="M328.5,455c-2-1.4-2.6-3.4-1.6-5.3c0.5-1,1.3-1.5,2.5-1.5c1.2,0,2,0.5,2.5,1.6c0.8,1.6,0.2,2.4-1.6,2.5
	c-0.1,0-0.1,0-0.2,0c-0.8,0.2-1.6-0.4-2.2,0.4c-0.2,0.3,0.1,0.7,0.4,1c0.8,0.8,1.7,0.7,2.6,0.1c0.2-0.1,0.5-0.4,0.8-0.1
	c0.2,1-0.6,1.1-1.3,1.4C329.7,455.5,329.1,455.5,328.5,455z"/>
<path class="st40" d="M337.3,437.6c-0.6,1.8-1.8,2.3-3.4,1.7c-1.6-0.6-2.3-3.8-1.5-5.5c0.8-1.7,2.2-1.9,3.7-1.4
	c1.4,0.5,1.5,1.8,1.5,3c0,1.3-1.2,0.7-1.9,0.9c-0.8,0.2-1.8-0.4-2.4,0.5c-0.1,0.2,0.2,0.7,0.4,0.9c0.9,0.7,1.7,0.6,2.6,0
	C336.6,437.4,336.8,437.3,337.3,437.6z"/>
<path class="st40" d="M499.6,435c-0.6,1.4-1.1,2.2-2.5,2.2c-1.3,0-1.9-0.8-2.4-1.6c-0.9-1.5-0.9-3.1,0-4.6c0.7-1.1,1.8-1.2,2.9-1
	c1.7,0.3,1.9,1.7,1.9,3c0,1.4-1.1,0.8-1.8,0.9c-0.8,0.2-1.8-0.4-2.4,0.4c-0.2,0.3,0.1,0.9,0.5,1.1c0.9,0.6,1.8,0.4,2.6-0.2
	C498.7,435.1,498.9,435.1,499.6,435z"/>
<path class="st35" d="M534.1,452.7c-2.1-1-3-3.2-2-5.3c0.7-1.5,2.8-2.1,4.1-1.1c1,0.7,1.2,1.7,1,2.7c-0.3,1.5-1.5,0.6-2.4,0.8
	c-0.6,0.1-1.4-0.3-1.9,0.3c-0.3,0.3,0,0.7,0.3,1c0.5,0.7,1.3,0.6,2,0.6c0.6,0,1.1-1.4,1.6-0.4c0.3,0.8-0.8,1-1.4,1.3
	C535,453,534.6,453,534.1,452.7z"/>
<path class="st40" d="M482.7,437.1c-1.1,2.8-2.7,3.1-4.3,1.4c-1.4-1.5-1.2-3.3-0.5-4.9c0.7-1.6,3.1-1.8,4.3-0.5
	c0.7,0.8,0.9,1.7,0.6,2.7c-0.3,0.9-1.3,0.4-1.9,0.5c-0.8,0.1-1.6-0.4-2.2,0.4c-0.3,0.3,0.1,0.7,0.3,1c0.8,0.8,1.7,0.8,2.6,0.2
	C481.8,437.6,482,437.5,482.7,437.1z"/>
<path class="st28" d="M510.1,452.7c-2.1-1.1-2.9-2.8-2.1-4.9c0.5-1.4,1.6-2.1,3.1-1.9c1.7,0.2,2.2,1.4,2.2,2.9c0,1.6-1.3,1-2.1,1.1
	c-0.7,0.1-1.5-0.3-2.1,0.3c-0.3,0.4,0.1,0.9,0.4,1.1c0.8,0.6,1.6,0.6,2.5,0.1c0.3-0.2,0.5-0.6,1.1-0.2c-0.1,0.9-0.8,1.2-1.5,1.4
	C511,453,510.6,453,510.1,452.7z"/>
<path class="st41" d="M263.4,437.7c-0.5,1-0.9,1.8-2.2,1.8c-1.4,0.1-2.1-0.8-2.6-1.7c-0.8-1.5-0.7-3,0.1-4.5c0.5-1,1.5-1.2,2.5-1.1
	c0.6,0,1.2,0.2,1.6,0.7c0.7,0.8,1,1.7,0.8,2.6c-0.3,1.2-1.3,0.5-2,0.7c-0.7,0.2-1.7-0.4-2.2,0.5c-0.2,0.3,0.1,0.7,0.4,0.9
	c0.8,0.7,1.6,0.6,2.5,0.1C262.5,437.6,262.7,437.3,263.4,437.7z"/>
<path class="st25" d="M98.6,455c-1.8-1.2-2.5-3.5-1.6-5.4c0.6-1.2,1.7-1.6,3-1.4c1.4,0.2,2,1.1,2.2,2.4c0.1,0.9,0,1.6-1.2,1.5
	c-0.2,0-0.4,0-0.7,0c-0.8,0.2-1.8-0.4-2.4,0.5c-0.1,0.1,0.2,0.7,0.4,0.9c0.9,0.8,1.9,0.7,2.8-0.1c0.1-0.1,0.4-0.1,0.7-0.1
	c0.1,1.1-0.7,1.4-1.4,1.6C99.8,455.5,99.2,455.5,98.6,455z"/>
<path class="st34" d="M204.5,435.5c0,1-0.1,1.9-0.1,2.9c0,0.4,0,1-0.6,1c-0.6,0-0.6-0.5-0.6-0.9c0-2.6,0-5.2,0-7.8
	c0-0.6,0.3-1,0.9-1c1.4,0,2.7,0,4.6,0c-1,1.2-2,0.9-2.7,0.9c-1.2,0-1.5,0.5-1.5,1.6c0,1,0.2,1.7,1.4,1.6c0.7,0,1.7-0.4,2.1,0.7
	C207,435.6,205.4,434.4,204.5,435.5z"/>
<path class="st41" d="M460.4,437.8c-0.7,1.7-2,2.2-3.4,1.5c-1.5-0.6-2.3-3.6-1.6-5.3c0.6-1.4,1.7-2,3.2-1.7c1.5,0.3,2,1.4,2,2.8
	c0,1.7-1.2,1-2.1,1.2c-0.8,0.1-1.6-0.4-2.2,0.4c-0.1,0.2,0.2,0.7,0.4,0.9c0.8,0.7,1.7,0.7,2.6,0C459.7,437.4,460,437.3,460.4,437.8z
	"/>
<path class="st25" d="M75,455.1c-1.1-0.3-1.7-1-1.5-2.1c0.2-1,0.9-1.8,2.1-2c0.7-0.2,2,0.1,1.7-1c-0.3-1.3-1.4-0.9-2.3-0.4
	c-0.3,0.2-0.6,0.5-1.1,0c0.6-1.4,1.8-1.4,3-1.2c1.1,0.1,1.6,0.9,1.7,2c0,0.6,0,1.2,0,1.8c0.1,1.6,0.3,3.3-2.2,3
	C76,455.4,75.5,455.4,75,455.1z"/>
<path class="st25" d="M448.6,455c-1.6-1.7-1.3-3.3,0.7-4c0.8-0.3,2.4,0.3,1.9-1.2c-0.4-1.3-1.7-0.6-2.6,0c-0.1,0.1-0.4,0-0.9,0
	c0.6-1.5,1.7-1.6,2.9-1.5c1.3,0.1,1.8,0.9,1.9,2.1c0.1,0.6,0,1.2,0,1.8c0.1,1.6,0.3,3.2-2.2,3C449.8,455.5,449.2,455.5,448.6,455z"
	/>
<path class="st42" d="M515,432.2c0.7-1.5-0.5-1.3-1.3-1.4c-0.7-0.1-1.1,0.8-2,0.4c0.7-1.4,1.9-1.4,3.1-1.2c1.1,0.2,1.5,1,1.6,2.1
	c0,0.7-0.1,1.4,0,2c0.6,2.5-1.1,2.9-2.9,3.1c-1.3,0.2-1.9-0.8-2.1-1.8c-0.4-1.7,0.8-2.2,2.2-2.3C514.1,432.7,514.7,432.6,515,432.2z
	"/>
<path class="st43" d="M334.7,455.1c-1.1-0.3-1.6-1.1-1.3-2.2c0.2-1,0.9-1.6,1.9-1.9c0.8-0.2,2.2,0.1,1.8-1.1
	c-0.3-1.1-1.5-0.8-2.4-0.3c-0.2,0.1-0.5,0.1-0.9,0.2c0.8-1.4,1.7-1.7,3-1.4c1.1,0.3,1.5,1,1.6,2.1c0,0.5,0,1,0,1.5
	c0,1.6,0.4,3.4-2.2,3.1C335.7,455.4,335.2,455.4,334.7,455.1z"/>
<path class="st43" d="M461.5,455.1c-1.1-0.3-1.5-1.1-1.3-2.2c0.2-0.9,0.8-1.5,1.7-1.9c0.8-0.3,2.4,0.2,2-1.2
	c-0.4-1.2-1.7-0.7-2.6-0.2c-0.2,0.1-0.4,0-0.9,0c0.7-1.5,2-1.5,3.1-1.3c1.1,0.2,1.5,1,1.6,2.1c0,0.5,0,1,0,1.5
	c0,1.6,0.4,3.4-2.2,3.1C462.4,455.4,462,455.4,461.5,455.1z"/>
<path class="st42" d="M132.9,471c-1.1-0.3-1.5-1.1-1.3-2.2c0.2-0.9,0.8-1.5,1.7-1.8c0.8-0.3,2.5,0.3,2-1.2c-0.4-1.4-1.8-0.5-2.8-0.2
	c-0.1,0-0.3-0.1-0.7-0.2c0.8-1.3,2-1.4,3.2-1.2c1.1,0.2,1.6,1,1.6,2.1c0,0.5,0,1,0,1.5c0.1,1.7,0.2,3.3-2.2,3.1
	C133.8,471.4,133.3,471.4,132.9,471z"/>
<path class="st44" d="M254.3,455c-1-0.5-1.6-1.2-1.2-2.3c0.4-0.9,1-1.8,2.2-1.8c0.6,0,1.8,0.1,1.5-1c-0.2-1-1.2-0.8-2-0.6
	c-0.4,0.1-0.9,1-1.2,0.1c-0.3-0.7,0.5-1,1.1-1.1c2-0.6,3.2,0.2,3.3,2.3c0,0.5-0.1,1,0,1.5c0.3,1.8-0.1,3-2.3,2.9
	C255.2,455.4,254.7,455.4,254.3,455z"/>
<path class="st25" d="M289.9,435.7c0,2-1.2,3.8-2.8,3.8c-1.6,0-3-1.8-3-3.9c0-2.1,1.1-3.4,2.9-3.4
	C288.8,432.3,289.9,433.5,289.9,435.7z"/>
<path class="st30" d="M351.3,435.8c0,2.1-1.3,3.8-2.9,3.7c-1.5-0.1-2.9-2.1-2.9-3.9c0-2.1,1.2-3.4,3-3.3
	C350.4,432.3,351.3,433.5,351.3,435.8z"/>
<path class="st28" d="M280.2,435.8c0,2.2-1.2,3.8-2.9,3.7c-1.5,0-2.8-1.9-2.8-3.9c0-2.2,1.1-3.4,2.9-3.4
	C279.3,432.3,280.2,433.4,280.2,435.8z"/>
<path class="st28" d="M209.3,435.6c0.1-2.3,1-3.4,2.9-3.3c1.8,0.1,2.7,1.2,2.7,3.5c0,2.1-1.3,3.8-2.9,3.7
	C210.3,439.4,209.2,437.8,209.3,435.6z"/>
<path class="st25" d="M227.2,435.7c0,2.1-1.2,3.8-2.8,3.8c-1.4,0-2.9-1.9-3-3.8c-0.1-2,1.1-3.4,2.9-3.5
	C226.2,432.2,227.2,433.4,227.2,435.7z"/>
<path class="st45" d="M358.4,409.3c0-1.2,0-2.4,0-3.5c0-0.6-0.1-1.2,0.8-1.3c0.9,0,0.9,0.6,0.9,1.2c0,2.4,0,4.9,0,7.3
	c0,0.6-0.1,1.2-1,1.1c-0.9,0-0.8-0.7-0.8-1.3C358.3,411.6,358.4,410.5,358.4,409.3z"/>
<path class="st46" d="M369.9,409.3c0,1.2,0,2.5,0,3.8c0,0.5-0.1,1-0.8,1c-0.7,0-0.9-0.3-0.9-1c0-2.6,0-5.1,0-7.7c0-0.6,0.3-1,1-1
	c0.8,0,0.7,0.6,0.7,1.1C370,406.8,369.9,408.1,369.9,409.3z"/>
<path class="st47" d="M555.5,452.7c-2.1-0.8-2.4-2.5-2.1-4.3c0.2-1.3,0.9-2.3,2.4-2.5c1.6-0.2,2.7,0.6,3.2,2.1
	c0.6,2.1-0.1,3.6-2.1,4.7C556.4,453,555.9,453,555.5,452.7z"/>
<path class="st38" d="M237.8,437.6c0.9-0.4,1.1,0.4,1.6,0.5c0.8,0.1,1.6,0.3,1.9-0.6c0.2-0.9-0.6-1-1.3-1.1
	c-1.1-0.2-2.1-0.7-2.1-2.1c0-1,0.5-1.6,1.3-1.8c1.1-0.3,2.4-0.5,2.9,1c-0.4,0.4-0.7,0.1-1,0c-0.8-0.3-1.8-0.6-2.1,0.4
	c-0.2,0.7,0.5,1.5,1.4,1.6c1.1,0.2,2.2,0.6,2,1.9c-0.1,1-0.8,1.9-1.9,2.1C239.1,439.7,238.3,439,237.8,437.6z"/>
<path class="st38" d="M232.5,455.1c-2.1-1.1-2.9-3-2.1-5.1c0.6-1.5,1.9-2,3.4-1.7c1.4,0.3,1.9,1.4,2.1,2.5c0.3,1.8-0.2,3.4-2,4.2
	C233.4,455.4,232.9,455.4,232.5,455.1z"/>
<path class="st38" d="M204.9,455.1c-2-1.3-2.6-3-1.8-5c0.4-1.2,1.2-1.8,2.5-1.8c1.2,0,2.1,0.5,2.7,1.6c1,2,0.2,4.2-2,5.3
	C205.8,455.4,205.4,455.4,204.9,455.1z"/>
<path class="st28" d="M110.6,471c-2-1-2.3-2.7-1.8-4.7c0.3-1.4,1.2-2.1,2.7-2.2c1.3,0,2.4,0.5,2.7,1.8c0.4,1.9,0.5,3.9-1.7,5
	C111.8,471.5,111.2,471.5,110.6,471z"/>
<path class="st35" d="M94.6,433.3c-0.4,0.4-0.6,0.2-0.9,0.1c-0.8-0.3-1.8-0.7-2.1,0.2c-0.3,0.9,0.5,1.5,1.5,1.8
	c1.1,0.2,2.2,0.7,1.9,2c-0.2,1-0.7,1.9-2,2.1c-1.5,0.1-2.2-0.6-2.6-1.9c0.4-0.4,0.6-0.3,0.9-0.1c0.8,0.7,2,1.1,2.4,0
	c0.6-1.3-0.9-1.2-1.7-1.4c-1.2-0.3-1.7-1.2-1.6-2.3c0-0.9,0.7-1.5,1.6-1.6C92.9,432.2,94.1,432.1,94.6,433.3z"/>
<path class="st25" d="M234.7,471.1c-2.1-0.7-2.4-2.5-2.1-4.3c0.2-1.3,0.9-2.3,2.4-2.5c1.6-0.2,2.7,0.6,3.2,2.1
	c0.6,2.1-0.1,3.6-2.1,4.7C235.6,471.4,235.2,471.4,234.7,471.1z"/>
<path class="st28" d="M108.8,455.1c-2-1.1-2.7-2.7-2.1-4.7c0.5-1.5,1.5-2.3,3.2-2.1c1.5,0.2,2.2,1.2,2.4,2.5c0.3,1.9,0,3.6-2.1,4.3
	C109.8,455.4,109.3,455.4,108.8,455.1z"/>
<path class="st35" d="M92,455c-0.6-0.5-1.2-0.4-1.8-0.1c-0.4-3-0.4-6.1,0-9.1c0.1-0.1,0.3-0.1,0.4,0c0.6,1-0.1,2.1,0.4,3
	c1.6-1,3.1-1,4.1,0.9c1.1,2.1,0.3,4.2-1.8,5.3C92.9,455.4,92.4,455.4,92,455z"/>
<path class="st28" d="M376.1,455.1c-2-1.1-2.7-2.7-2-4.7c0.5-1.4,1.4-2.2,3-2.1c1.5,0.1,2.3,1,2.5,2.3c0.3,1.9,0.2,3.7-2.1,4.5
	C377,455.4,376.6,455.4,376.1,455.1z"/>
<path class="st25" d="M380.7,441.3c2.7-0.9,2.1-2.5,1.5-4.1c-0.6-1.5-1-3.1-1.2-4.8c1.8,1.1,1.2,3.4,2.5,4.9
	c0.9-1.6,0.8-3.5,1.9-4.9c0.7,0.1,0.6,0.5,0.5,0.9c-0.7,2.2-1.4,4.5-2.2,6.7C383.3,441.1,382.7,442.1,380.7,441.3z"/>
<path class="st25" d="M79.7,448.5c2,1,1.6,3.2,2.7,4.9c0.5-1.5,1-3,1.5-4.4c0.1-0.4,0.3-0.7,0.8-0.6c0.6,0.2,0.2,0.6,0.1,0.9
	c-0.8,2.4-1.5,4.8-2.4,7.1c-0.3,1-1.1,1.6-2.5,1c2.3-1,1.9-2.5,1.3-4.2C80.7,451.7,80.2,450.1,79.7,448.5z"/>
<path class="st29" d="M153.3,471c-0.6-0.4-1.4-0.6-1.1-1.5c0.5-0.3,0.7,0.1,1,0.2c0.8,0.5,1.9,0.8,2.2-0.2c0.4-1.1-0.8-1.1-1.5-1.3
	c-1.3-0.3-1.8-1.3-1.8-2.4c0-0.8,0.6-1.4,1.4-1.5c1.1-0.2,2.3-0.4,2.9,1c-0.5,0.5-0.8,0.1-1.1,0c-0.7-0.2-1.6-0.5-2,0.3
	c-0.4,1,0.6,1.1,1.3,1.3c1.1,0.4,2,1.1,2.1,2.2c0.1,1-0.6,1.6-1.6,1.9C154.5,471.5,153.9,471.5,153.3,471z"/>
<path class="st35" d="M97.3,471.1c-0.5-0.4-1.5-0.6-1.2-1.3c0.4-0.9,0.9,0.1,1.3,0.3c0.7,0.2,1.6,0.4,1.9-0.5
	c0.4-1.1-0.7-1.1-1.3-1.2c-1.3-0.2-1.9-1.1-2-2.3c-0.1-0.8,0.5-1.4,1.3-1.6c1.2-0.3,2.3-0.4,3,0.9c-0.4,0.5-0.7,0.2-1,0.1
	c-0.8-0.4-1.8-0.6-2.1,0.3c-0.3,0.9,0.8,1,1.4,1.2c1,0.4,1.8,1,2,2.1c0.2,1.1-0.6,1.5-1.5,1.9C98.5,471.5,97.9,471.5,97.3,471.1z"/>
<path class="st48" d="M218.7,455c-0.5-0.4-1.2-0.6-1.2-1.5c0.9-0.5,1.3,0.8,2.1,0.6c0.5-0.1,1.1,0,1.3-0.6c0.2-0.6-0.3-0.9-0.8-1.1
	c-0.2-0.1-0.4-0.1-0.6-0.1c-1.3-0.2-1.9-1.1-1.9-2.3c0-0.7,0.4-1.5,1.3-1.6c1.1-0.2,2.4-0.5,3,1c-0.4,0.4-0.7,0.2-1,0.1
	c-0.7-0.3-1.6-0.6-1.9,0.3c-0.4,1,0.6,1.1,1.3,1.3c1,0.4,1.9,1,2.1,2c0.2,1.1-0.6,1.8-1.6,2C219.9,455.5,219.3,455.5,218.7,455z"/>
<path class="st49" d="M117.3,432.8c2.8-1.1,3.9-0.4,4,2.5c0,1,0,2,0,3.1c0,0.4,0.1,1-0.5,1c-0.8,0-0.7-0.6-0.7-1.1c0-1,0-2,0-3.1
	c0-0.7,0.1-1.6-0.8-1.9c-0.9-0.3-1.6,0-2,0.8c-0.5,1.7,0.2,3.5-0.4,5.2l-0.2,0.1l-0.2,0c-0.4-3.2-0.4-6.4,0-9.6c0.1-0.1,0.3,0,0.4,0
	C117.5,430.7,116.7,431.8,117.3,432.8z"/>
<path class="st25" d="M211.5,469.1c1.1-1.4,0.7-3.6,2.4-4.8c-0.2,4.3-2.6,9.2-5,9.3c2.6-1.2,2-2.8,1.4-4.5c-0.6-1.5-0.9-3-1.6-5.1
	C210.9,465.4,210.3,467.6,211.5,469.1z"/>
<path class="st25" d="M518.1,434.9c0.7,0.4,1,0.7,1.4,0.8c0.7,0.2,1.7,0.3,1.9-0.5c0.3-1.1-0.7-1.1-1.3-1.2c-1.2-0.3-2-0.8-2-2.2
	c0-1,0.5-1.6,1.4-1.8c1.2-0.2,2.3-0.3,3,1.2c-1.2,0.2-2.8-1.4-3.2,0.2c-0.4,1.3,1.4,1.6,2.4,2c0.9,0.4,1.2,1.1,0.9,2
	c-0.4,0.9-1,1.8-2.3,1.7C518.9,437.1,518.2,436.6,518.1,434.9z"/>
<path class="st29" d="M568.8,452.7c-0.8-0.2-1.5-0.5-1.6-1.6c1-0.4,1.3,0.9,2.2,0.6c0.5-0.1,1.1,0,1.3-0.6c0.2-0.6-0.3-0.9-0.8-1.1
	c-0.3-0.1-0.6-0.1-0.8-0.2c-1.2-0.3-1.7-1.2-1.8-2.2c0-0.8,0.5-1.5,1.3-1.6c1.1-0.2,2.3-0.5,3,1c-0.2,0.1-0.3,0.2-0.5,0.2
	c-0.9-0.2-2-1.1-2.5,0.1c-0.5,1.3,1.1,1,1.7,1.4c0.7,0.5,1.7,1,1.7,2.2c0,1-0.8,1.5-1.7,1.8C569.7,453,569.3,453,568.8,452.7z"/>
<path class="st35" d="M539.9,452.7c-0.5-0.3-1-0.6-1.2-1.2c1.2-0.4,2.7,1.3,3.2-0.2c0.6-1.6-1.4-1.1-2.2-1.7c-0.8-0.5-1-1.3-1-2.1
	c0.1-0.8,0.5-1.4,1.4-1.5c1.1-0.1,2.2-0.3,2.8,1c-0.2,0.1-0.3,0.3-0.4,0.3c-0.9-0.2-2.1-1.1-2.5,0c-0.6,1.5,1.1,1.1,1.8,1.5
	c2,1.2,2,2.6-0.2,3.9C541.1,453.1,540.5,453.1,539.9,452.7z"/>
<path class="st25" d="M71.5,471c-0.6-0.2-1.6-0.6-1.2-1.3c0.5-1.1,0.9,0.3,1.5,0.3c0.7,0,1.4,0.2,1.8-0.5c0.4-0.9-0.4-1.1-1.1-1.2
	c-1.3-0.2-2.2-0.9-2.3-2.3c-0.1-0.9,0.5-1.4,1.2-1.7c1-0.4,2-0.1,3.1,1c-0.2,0.1-0.4,0.2-0.6,0.2c-0.9-0.3-2-1.1-2.5,0
	c-0.5,1.2,1,1,1.7,1.4c2,0.9,2.1,2.6,0.2,4C72.7,471.5,72.1,471.5,71.5,471z"/>
<path class="st25" d="M204.5,471.1c-0.7-0.3-1.4-0.5-1.2-1.5c0.8-0.4,1.1,0.8,1.9,0.6c0.6-0.1,1.3-0.1,1.4-0.8
	c0.1-0.6-0.4-0.9-0.9-1c-0.2-0.1-0.4-0.1-0.6-0.1c-1.2-0.2-1.7-1-1.8-2.2c-0.1-1,0.4-1.6,1.3-1.8c1.2-0.2,2.3-0.3,2.9,1.1
	c-0.4,0.4-0.6,0.2-0.9,0.1c-0.8-0.5-1.9-0.8-2.2,0.3c-0.3,0.9,0.9,0.9,1.5,1.2c2.2,0.9,2.4,2.5,0.5,4
	C205.7,471.5,205.1,471.5,204.5,471.1z"/>
<path class="st25" d="M546.1,452.7c-0.6-0.2-1.5-0.5-1.2-1.3c0.4-1,0.8,0.2,1.3,0.3c0.7,0.1,1.6,0.4,2-0.5c0.4-1.1-0.6-1.1-1.3-1.3
	c-1.2-0.2-1.9-1-2-2.3c-0.1-0.9,0.5-1.4,1.2-1.6c1.2-0.3,2.4-0.4,3,1c-0.3,0.4-0.6,0.3-1,0.1c-0.8-0.4-1.8-0.7-2.1,0.2
	c-0.4,1.1,0.8,1.1,1.5,1.3c1,0.4,1.6,1.1,1.8,2c0.2,1.1-0.5,1.6-1.4,2C547.3,453.1,546.7,453.1,546.1,452.7z"/>
<path class="st37" d="M442.8,455.1c-0.9-0.2-1.5-0.7-1.6-1.7c0.6-0.4,0.9,0,1.2,0.2c1.4,0.9,2.2,0.5,2.3-1.2c0.1-1.8,0-3.5,0-5.3
	c0-0.5-0.2-1.4,0.7-1.3c0.7,0,0.5,0.8,0.5,1.2c0,1.8,0,3.7,0,5.5c0,1.2-0.5,2.1-1.7,2.5C443.7,455.4,443.3,455.4,442.8,455.1z"/>
<path class="st25" d="M273.1,434c-1.2-0.4-2.3-1.5-3.4-0.3c-1,1.1-1,2.5-0.2,3.7c1.1,1.7,2.4,0.2,3.9-0.2c-0.6,1.6-1.3,2.7-2.9,2.3
	c-1.7-0.4-2.3-1.9-2.4-3.5c-0.1-1.6,0.2-3.2,2.1-3.6C271.5,432,272.8,432.3,273.1,434z"/>
<path class="st50" d="M73.7,438.6c0.1,0.7-0.3,0.8-0.8,0.9c-0.8,0-1.1-0.6-1.2-1.1c-0.5-2.3-1.1-4.6-0.5-7c0.1-0.4,0.1-1,0.6-1
	c0.6,0,0.4,0.7,0.6,1c0.8,1,0.5,1.6,0.1,2.8C72.1,435.5,71.6,437.6,73.7,438.6z"/>
<path class="st51" d="M491,427.8c1.2,0.6,0.4,2.1,1.7,2.2c0.3,0,0.2,0.4,0,0.6c-1.3,1.8-1.6,3.5,0.1,5.2c0.3,0.3,0.4,0.6,0.2,1
	c-0.2,0.3-0.6,0.3-1,0.2c-0.6-0.1-0.9-0.7-1-1.1C490.6,433.3,489.7,430.6,491,427.8z"/>
<path class="st49" d="M353.5,430.2c1.2,0.5,0.5,2.2,1.9,2.3c0.2,0,0,0.3-0.1,0.5c-1.5,2.3-1.4,3.1,0.1,5.3c0.1,0.2,0.2,0.6,0.2,0.8
	c-0.2,0.4-0.6,0.4-1,0.3c-0.5,0-0.8-0.5-0.9-0.9C353,435.8,352.2,433.1,353.5,430.2z"/>
<path class="st15" d="M170.7,326.4c1.4-0.1,2.1,0.7,2.1,2c0,1.2-0.6,2.1-1.9,2.2c-1.4,0-2-0.7-2.1-2
	C168.8,327.2,169.4,326.4,170.7,326.4z"/>
<path class="st47" d="M519.8,452.6c-2,0-1.9-1.5-2.8-2c-1,0.3-0.9,1.9-2.4,2c0.6-1.3,1.5-2.3,1.5-3.4c0-1-0.9-2-1.5-3.2
	c1.6,0,1.4,1.6,2.4,2c0.9-0.4,0.8-2,2.6-2C517.5,448.2,517.2,450.4,519.8,452.6z"/>
<path class="st52" d="M132.4,455.1c-0.3-0.3-0.9-0.6-0.9-0.9c-0.2-2.4-1.2-4.7-0.3-7.1c0.1-0.4,0.2-0.8,0.7-0.7
	c0.2,0,0.4,0.4,0.5,0.6c0.2,0.4,0.1,2.4,0.1,3c-0.1,1.8-0.4,3.6,1.3,4.9C133.3,455.4,132.9,455.3,132.4,455.1z"/>
<path class="st53" d="M243.1,446.3c-0.1,1.2,2.2,1.8,0.6,3.6c-0.9,1.1,0,3.8,1.1,4.8c-0.9,0.6-1.5,0.2-2.1-0.5
	c-0.4-0.6-0.4-1.3-0.4-1.9C242.7,450.4,241.2,448.2,243.1,446.3z"/>
<path class="st54" d="M370.8,448.8c0.8-0.6,0.3-1.5,0.5-2.3c0.1-0.4,0.1-0.8,0.6-0.8c0.5,0,0.6,0.4,0.6,0.7c0,2.6,0.1,5.2,0,7.7
	c-0.1,1.4-1,0.4-1.6,0.3c-0.2-0.2-0.3-0.4-0.3-0.6c0.2-1.5,0.2-3.1,0-4.6C370.5,449.1,370.6,448.9,370.8,448.8z"/>
<path class="st28" d="M102.6,434c0-0.7,0-1.5,0.8-1.6c0.9-0.1,0.9,0.8,1,1.4c0.2,1,0.5,2,0.8,3.4c1-1.7,0.7-3.5,2-4.7
	c0,2.5-0.7,4.7-2.2,6.9c-0.5-1.7-1-3.4-1.7-5.5c-0.2,0.9-0.3,1.2-0.4,1.5C102,435.2,102.5,434.6,102.6,434z"/>
<path class="st30" d="M126.4,432.3c1.5,1.3,0.9,3.6,2.2,5c1-1.6,0.7-3.6,2.4-5.4c0,2.9-1.2,5-2,7.2c-0.3,0.8-0.9,0.1-1.1-0.6
	c-0.7-2-1.4-4-2-6C126.1,432.5,126.2,432.4,126.4,432.3z"/>
<path class="st35" d="M89.8,465c0.5-0.4,1.2-1.5,1.3,0.2c0.1,2.1,0,4.3,0,6.4c0,1.4-0.9,1.9-2.1,2.2c-1.3,0.3-2.1,0-2.9-1.3
	c3.9,0.6,4.4,0.3,3.7-2.4c-0.4,0.2-0.6-0.1-0.7-0.4c0.5-1.4,0.3-2.8,0.3-4.1C89.5,465.3,89.6,465.2,89.8,465z"/>
<path class="st13" d="M169.9,339.8c-0.9-0.6-1.3-1.5-0.9-2.4c0.4-0.7,0.7-1.6,1.8-1.6c1.1,0,1.4,0.8,1.7,1.5c0.6,1.1,0.2,2-0.9,2.6
	C171.1,340.3,170.5,340.3,169.9,339.8z"/>
<path class="st13" d="M259.7,339.9c-2-1-1.4-2.3-0.4-3.6c0.7-0.8,1.5-0.8,2.2,0c1.1,1.3,1.5,2.6-0.4,3.5
	C260.6,340.2,260.2,340.2,259.7,339.9z"/>
<path class="st25" d="M476.2,455.1c-2.1-1.1-2.8-2.8-2-4.9c0.5-1.4,1.5-2.1,3.1-1.9c1,0.1,1.7,0.6,2,1.9c-1.4-0.4-2.7-2-3.8-0.3
	c-0.8,1.2-0.7,2.6,0.2,3.7c1.1,1.3,2.2,0.2,3.6-0.9c-0.2,1.6-0.9,2-1.7,2.4C477.1,455.4,476.6,455.4,476.2,455.1z"/>
<path class="st38" d="M456.4,453.5c0.6-1.8,1.1-3.2,1.5-4.5c0.1-0.4,0.4-0.6,0.8-0.5c0.4,0.1,0.2,0.4,0.2,0.7
	c-0.5,1.7-1.1,3.3-1.7,5c-0.1,0.4-0.3,0.9-0.9,0.8c-0.6,0-0.7-0.5-0.8-0.9c-0.5-1.6-1.1-3.2-1.6-4.8c-0.1-0.3-0.4-0.7,0.2-0.9
	c0.5-0.1,0.6,0.2,0.7,0.6C455.3,450.4,455.8,451.7,456.4,453.5z"/>
<path class="st55" d="M441.6,434.6c0-1.3,0-2.5,0-3.8c0-0.4-0.1-1,0.5-1c0.6,0,0.6,0.5,0.6,0.9c0,2.5,0,5,0,7.5c0,0.4,0,1-0.5,1
	c-0.8,0-0.6-0.7-0.6-1.2C441.5,437,441.6,435.8,441.6,434.6z"/>
<path class="st56" d="M492,327.7c0-1.5,0-3.1,0-4.6c0-0.9,0.4-1.1,1.2-1.1c0.8,0,1,0.4,1,1.1c-0.1,1.6,0.2,3.2-0.4,4.8
	C493.1,328.2,492.5,328.3,492,327.7z"/>
<path class="st57" d="M248.1,449.2c-1,1.4-0.4,3-0.6,4.5c-0.1,0.5,0.1,1.2-0.6,1.2c-0.7,0-0.6-0.7-0.6-1.2c0-2.3,0-4.5,0-6.8
	c0-0.5-0.1-1.2,0.6-1.1c0.7,0,0.6,0.7,0.6,1.2c0,0.6,0.1,1.2,0.1,1.8C247.8,448.9,248.1,449,248.1,449.2z"/>
<path class="st58" d="M372.3,327.7c0-1.4,0-2.8,0-4.2c0-0.8-0.1-1.6,1.2-1.6c1.4,0,1,1,1,1.7c0,1.4,0,2.8-0.4,4.1
	C373.5,328.2,372.9,328.3,372.3,327.7z"/>
<path class="st55" d="M239.7,461.4c1.5,1,1,2.1,1.1,3c0.1,1.8,0,3.7,0,5.5c0,0.4,0,0.8-0.4,0.9c-0.4,0.1-0.6-0.1-0.6-0.4
	C239.7,467.5,239.7,464.7,239.7,461.4z"/>
<path class="st42" d="M391.4,430c1.1,0.9,0.2,2.2,1.6,2.4c0.3,0,0.3,0.3,0.1,0.6c-1.4,2-1.4,3.4,0,5.1c0.3,0.3,0.5,0.7,0.2,1
	c-0.3,0.4-0.9,0.4-1.2,0.1c-0.4-0.3-0.8-0.8-0.8-1.2c-0.1-1.4,0.3-3-0.3-4.1C390.3,432.4,391.5,431.5,391.4,430z"/>
<path class="st27" d="M87,430.1c0.9,0.8,0.2,2.1,1.5,2.3c0.3,0,0.2,0.4,0,0.6c-1.4,1.8-1.6,3.5,0.2,5.2c0.3,0.3,0.5,0.6,0.3,1
	c-0.3,0.4-0.9,0.4-1.2,0.1c-0.4-0.4-1-0.9-1-1.4C86.9,435.4,85.7,432.8,87,430.1z"/>
<path class="st43" d="M452.1,430.1c0.9,0.7,0.1,2.1,1.5,2.3c0.3,0,0.2,0.3,0,0.6c-1.4,1.9-1.3,3.3,0.1,5.2c0.2,0.3,0.4,0.6,0.1,1
	c-0.3,0.3-0.7,0.3-1,0.2c-0.6-0.2-1-0.9-0.9-1.4C452,435.4,450.8,432.8,452.1,430.1z"/>
<path class="st29" d="M112.5,430.2c1.1,0.8,0.4,2.2,1.7,2.3c0.3,0,0.3,0.4-0.1,0.6c-1.8,1.2-0.6,2.9-0.8,4.4c0,0.2,0.3,0.5,0.5,0.6
	c0.7,0.3,1.1,0.7,0.4,1.3c-0.5,0.4-1.1,0.2-1.5-0.5c-0.3-0.5-0.4-1.1-0.5-1.7c-0.3-1.4,0.7-3.1-0.8-4.4
	C111.4,432.7,112.5,431.3,112.5,430.2z"/>
<path class="st54" d="M292.1,432.4c0.7,0.3,1.3-0.2,1.9-0.2c1.2-0.1,2.1,0.4,2.3,1.6c0.2,1.6,0.1,3.2,0.2,4.9c0,0.4-0.2,0.8-0.6,0.7
	c-0.5-0.1-0.5-0.5-0.5-0.9c0-1,0-2.1,0-3.1c-0.1-2.3-0.5-2.5-2.7-1.7C292,433.4,291.7,433.1,292.1,432.4z"/>
<path class="st25" d="M375.7,432.9c1.1-1.2,2.3-0.8,3.2,0.1c1.2,1.1,1.1,3.9-0.1,5.3c-1.3,1.6-2.3,1.5-3.2-0.1
	c-0.1-0.1-0.2-0.2-0.2-0.4c0-0.1,0-0.2,0.1-0.2c0.7-0.6,1.8,0,2.4-0.9c0.8-1.2,0.2-2.5-1.6-3.2C376,433.5,375.7,433.3,375.7,432.9z"
	/>
<path class="st38" d="M494.6,446.7c1.4-1.1,2.8-1.4,4,0.3c1.2,1.7,0.5,4.4-1.4,5.7c-0.5,0.3-0.9,0.3-1.4,0c-0.4-0.3-0.8-0.5-1.2-0.8
	c-0.3-0.2-0.3-0.5-0.3-0.9c0.2-0.4,0.6-0.3,1-0.2c0.8,0.2,1.5,0.4,1.9-0.5c0.4-0.7,0.4-1.5,0-2.1c-0.5-0.9-1.2-0.5-2-0.4
	c-0.4,0.1-0.7,0.2-1-0.2C494.3,447.2,494.3,447,494.6,446.7z"/>
<path class="st59" d="M376.7,327.8c0-1.4-0.1-2.8-0.1-4.2c0-0.8-0.1-1.6,1.2-1.6c1.4,0.1,1,1,0.9,1.8c-0.1,1.3-0.2,2.6-0.3,4
	C377.9,328.3,377.3,328.3,376.7,327.8z"/>
<path class="st35" d="M361,454.2c-1.2,0.9-2.5,1.2-3.6,0.1c-1.3-1.3-1.1-3-0.5-4.5c0.6-1.5,2-1.7,3.3-1.2c0.5,0.2,0.8,0.1,1.2-0.1
	c0.5,0.7,0,1-0.6,1.2c-2.5,0.4-3.1,1.1-2.6,2.7c0.6,1.8,2,0.4,3,1C361.3,453.6,361.2,453.9,361,454.2z"/>
<path class="st60" d="M382.8,455.1c-0.5-0.3-1.2-0.7-1.2-1.2c0.2-2.5-1.2-5,0.2-7.6c1,0.6,0.1,2.6,2.1,2.1c-2.2,2-2.1,4.5,0.1,6.5
	C383.7,455.4,383.3,455.3,382.8,455.1z"/>
<path class="st35" d="M146.6,471.1c-1.8-1.3-2.5-3.5-1.6-5.4c0.7-1.6,2.2-1.9,3.9-0.7c0.1,0.1,0.2,0.2,0.2,0.3c0,0.1,0,0.2-0.1,0.2
	c-0.5,0.6-1.3,0.1-1.9,0.4c-0.9,0.4-0.9,1.3-0.8,2.1c0.1,0.8,0.5,1.3,1.5,1.3c0.5,0,1.1-0.5,1.6,0c0.1,0.3,0.1,0.6-0.2,0.9
	c-0.4,0.3-0.8,0.6-1.3,0.9C147.6,471.4,147.1,471.4,146.6,471.1z"/>
<path class="st61" d="M247.6,430c1.3,0.8,0.5,2.2,1.8,2.4c0.3,0,0.4,0.3,0.1,0.6c-1.6,1.8-1.6,3.5,0.1,5.2c0.3,0.3,0.4,0.6,0.1,1
	c-0.4,0.4-0.9,0.3-1.2,0c-0.4-0.4-0.8-1-0.8-1.5c-0.1-1.3,0.3-2.9-0.3-3.9C246.6,432.2,248.1,431.5,247.6,430z"/>
<path class="st25" d="M502.1,452.7c-0.9-0.5-0.9-1.4-1-2.3c-0.2-1.3,0.6-2.7-0.7-3.9c-0.3-0.3,1.2-1.4,0.7-2.9
	c1.4,0.9,0.5,2.5,2,2.5c0.3,0,0.2,0.4-0.1,0.6c-1.8,1.2-0.6,2.9-0.8,4.4c-0.1,0.8,1.5,0.5,1.2,1.5C503,453,502.6,453,502.1,452.7z"
	/>
<path class="st49" d="M561.2,446.1c0.5,0.2,1,0,1.5-0.1c1.7-0.3,2.7,0.4,2.9,2.1c0.1,1.2,0,2.3,0,3.5c0,0.4,0,1-0.6,1
	c-0.6,0-0.6-0.5-0.6-1c0-0.9,0-1.8,0-2.6c-0.1-2.2-0.5-2.5-2.7-1.6C561.2,447.1,560.8,446.7,561.2,446.1z"/>
<path class="st42" d="M129.4,454.8c-2.5,0-3.4-4.5-1.9-8.5c1,0.4,0,2.1,1.4,2.1c0.3,0,0.2,0.3,0,0.6
	C127.5,451.1,127.6,453.1,129.4,454.8z"/>
<path class="st40" d="M89.8,465c0,0.2-0.1,0.4-0.1,0.7c-0.9,0.4-2.3-0.3-2.5,1.5c-0.2,1.7,0.9,2.1,2.1,2.6c0.2,0.1,0.3,0.2,0.5,0.4
	c-1.3,1.3-2.6,1-3.6-0.2s-1-3.9,0.2-4.9C87.4,463.9,88.7,463.8,89.8,465z"/>
<path class="st62" d="M122.2,471.1c-0.6-0.3-1.3-0.8-1.2-1.5c0.3-2.4-1.2-4.9,0.3-7.3c1.1,0.3,0.2,2.2,1.6,2.2
	c0.2,0,0.1,0.3-0.1,0.5c-1.5,2.8-1.4,4,0.6,5.9C123.1,471.4,122.7,471.3,122.2,471.1z"/>
<path class="st63" d="M224.5,448.7c3.3-1.1,4.3-0.4,4.3,3.1c0,1,0.5,2.9-0.5,2.9c-1.4-0.1-0.6-1.9-0.7-2.9c-0.1-2.7-0.4-3-2.8-2.2
	C224.5,449.4,224.2,449.2,224.5,448.7z"/>
<path class="st51" d="M220.9,465.1c-0.9,1.4-0.3,2.9-0.5,4.3c-0.1,0.5,0.2,1.4-0.6,1.5c-1.1,0-0.6-1-0.7-1.5c-0.1-0.6-0.1-1.3,0-2
	c0.2-1.4-0.4-2.3-1.9-2.3l-0.1-0.1c1.1-1.7,2.3,0,3.4-0.1C220.9,464.8,220.9,464.9,220.9,465.1z"/>
<path class="st52" d="M350.8,448.7c1.2-0.2,2.7-1.1,3.7,0.2c1.2,1.7,0.6,3.7,0.6,5.6c0,0.3-0.3,0.5-0.6,0.4
	c-0.4-0.1-0.4-0.4-0.5-0.7c0-1,0-1.9,0-2.9c-0.1-2.2-0.5-2.5-2.7-1.7C350.8,449.4,350.5,449.2,350.8,448.7z"/>
<path class="st52" d="M260.5,448.7c1.2-0.1,2.7-1.1,3.7,0.2c1.2,1.7,0.6,3.7,0.6,5.6c0,0.3-0.3,0.5-0.6,0.4
	c-0.4-0.1-0.4-0.4-0.5-0.7c0-1,0-1.9,0-2.9c-0.1-2.2-0.5-2.5-2.7-1.7C260.5,449.4,260.2,449.2,260.5,448.7z"/>
<path class="st51" d="M119.1,449c-0.8,1.5-0.4,3-0.5,4.5c0,0.5,0.2,1.4-0.7,1.3c-0.7,0-0.5-0.8-0.6-1.2c0-0.8-0.1-1.6,0-2.4
	c0.2-1.5-0.4-2.2-1.9-2.2l-0.1-0.1c1.1-1.8,2.5,0.3,3.7-0.2c0.1,0.1,0.1,0.1,0.1,0.2C119.1,449,119.1,449,119.1,449z"/>
<path class="st54" d="M248.1,449.2c-0.2-0.2-0.3-0.3-0.5-0.5c2.8-1.1,3.9-0.4,4,2.5c0,1,0,1.9,0,2.9c0,0.4-0.1,0.8-0.6,0.8
	c-0.4,0-0.6-0.4-0.6-0.8c0-1-0.1-1.9,0-2.9C250.5,449.6,249.8,448.9,248.1,449.2z"/>
<path class="st64" d="M237,324.1c-0.1,1.1-0.6,1.7-1.6,1.7c-1.1,0-1.8-0.6-1.8-1.8c0-1,0.6-1.6,1.6-1.7
	C236.4,322.4,236.9,323,237,324.1z"/>
<path class="st25" d="M361,454.2c0-0.4,0-0.7,0-1c-0.7-1.2-0.8-2.5-0.6-3.8c0.6-0.1,1-0.2,1-0.9c1.1,2.7,0.8,5.6,0.2,8.2
	c-0.4,1.6-2.2,1.6-3.7,1c0-0.8,0.5-0.6,1-0.4C361,457.1,361.2,455.8,361,454.2z"/>
<path class="st25" d="M270.3,454.5c-0.3,0.2-0.6,0.4-0.8,0.6c-0.5,0.3-0.9,0.3-1.4,0c-2.1-1.1-2.1-3.1-1.6-5s2.2-2.3,3.8-1
	c0,0.2-0.1,0.4-0.3,0.5c-1.1,0.3-2.1,0.6-2.2,2.1c0,1.4,0.9,1.9,2,2.1C270.1,453.9,270.3,454.1,270.3,454.5z"/>
<path class="st29" d="M102.6,434c0.1,0.5-0.1,1,0.4,1.4c-0.3,1.1-0.6,2.1-0.8,3.2c-0.1,0.4-0.1,0.8-0.6,0.8c-0.5,0-0.6-0.4-0.7-0.7
	c-0.5-1.8-1-3.7-1.5-5.5c-0.1-0.3-0.2-0.6,0.2-0.7c0.4-0.1,0.7,0.1,0.8,0.5c0.3,1.3,0.7,2.6,1,4C102.5,436.1,101.9,434.8,102.6,434z
	"/>
<path class="st11" d="M487.9,327.8c0-1.5-0.1-2.9-0.1-4.4c0-0.7-0.1-1.3,0.9-1.4c1.2,0,1.1,0.8,1,1.5c0,1.4-0.1,2.8-0.2,4.2
	C489,328.3,488.5,328.2,487.9,327.8z"/>
<path class="st65" d="M467.8,324c0,1.2-0.6,1.9-1.7,1.9c-1,0-1.7-0.6-1.7-1.6c0-1.1,0.5-1.8,1.7-1.8
	C467.2,322.4,467.6,323,467.8,324z"/>
<path class="st66" d="M220.9,465.1c-0.1-0.1-0.1-0.2-0.2-0.2c1.3-1.1,2.5-0.9,3.1,0.6c0.6,1.6,0.2,3.3,0.2,5c0,0.3-0.3,0.5-0.6,0.5
	c-0.4,0-0.6-0.4-0.6-0.8c0-1-0.1-2.1,0-3.1C222.9,465.6,222.3,465,220.9,465.1z"/>
<path class="st47" d="M370.8,448.8c0,0.2,0,0.4,0,0.5c-0.8,0.6-2.1,0.4-2.4,1.7c-0.4,1.9,1,2.4,2.4,2.9c0,0.2,0,0.4,0.1,0.6
	c-0.3,0.2-0.6,0.4-0.9,0.5c-0.5,0.3-0.9,0.3-1.4,0c-1.9-1.1-2.1-2.9-1.6-4.8C367.4,448.3,368.8,447.9,370.8,448.8z"/>
<path class="st23" d="M375.7,432.9c0,0.1,0.1,0.2,0.3,0.3c0.1,1.5-0.1,3-0.4,4.5c0,0.2,0,0.4,0,0.6c-0.6,0.1-0.3,1.2-0.9,1
	s-0.4-0.9-0.4-1.3c0-2.7,0-5.4,0-8.6C375.8,430.6,374.6,432.2,375.7,432.9z"/>
<path class="st67" d="M463.8,433.3c-1,1.6-0.3,3.3-0.5,5c-0.1,0.5,0.2,1.2-0.6,1.1c-0.6-0.1-0.5-0.6-0.5-1.1c0-1.5,0-3.1,0-4.6
	c-0.1-1.5,0.7-1.3,1.6-0.9c0.1,0.1,0.2,0.2,0.1,0.4C463.8,433.2,463.8,433.3,463.8,433.3z"/>
<path class="st25" d="M270.3,449.2l0-0.2c1-0.9,0.1-2.3,0.9-3.3c0.9,0.7,0.5,1.6,0.6,2.4c0.1,1.9,0,3.8,0,5.7c0,1.5-0.7,1.1-1.5,0.7
	c-0.1-0.1-0.3-0.2-0.4-0.4C270.1,452.5,269.9,450.8,270.3,449.2z"/>
<path class="st68" d="M110.1,436.3c-0.3,0.9,0.6,2.9-0.5,2.9c-1.2,0-0.4-1.9-0.6-3c-0.1-0.9,0-1.8,0-2.6c0-0.4-0.1-1,0.5-1
	c0.6,0,0.6,0.5,0.6,1C110.1,434.3,110.1,435.2,110.1,436.3z"/>
<path class="st69" d="M253.3,433c-1.5,1.9-0.3,4.3-1.1,6.4c-0.8-1.5-0.9-7.5-0.2-9.6C253.2,430.5,251.7,432.4,253.3,433L253.3,433z"
	/>
<path class="st67" d="M211.6,449.3c-0.9,1.4-0.4,3-0.6,4.5c-0.1,0.5,0.2,1.2-0.6,1.1c-0.6-0.1-0.5-0.7-0.5-1.1c0-1.4,0-2.8,0-4.2
	c-0.1-1.5,0.7-1.3,1.6-0.9c0.1,0.1,0.2,0.2,0.1,0.4C211.7,449.2,211.6,449.3,211.6,449.3z"/>
<path class="st43" d="M292.1,432.4c0.2,0.4,0.3,0.9,0.5,1.3c0,1.6-0.1,3.2-0.1,4.9c0,0.4-0.1,0.8-0.6,0.8c-0.2,0-0.5-0.2-0.5-0.4
	c0-2.2-0.5-4.4,0.3-6.5C291.7,432.4,291.9,432.4,292.1,432.4z"/>
<path class="st62" d="M396.6,433.3c-1.1,1.9,0,4.1-0.7,6.1c-0.8-1.1-1-6.7-0.4-9.5c1.4,0.7,0,2.3,1.1,3c0.1,0.1,0.2,0.2,0.1,0.3
	C396.7,433.2,396.6,433.3,396.6,433.3z"/>
<path class="st70" d="M126.2,465.3c-0.9,1.8-0.2,3.7-1.1,5.5c0-3,0-6,0-9.2c1.2,1,0.1,2.5,1.1,3.3c0.2,0.1,0.2,0.1,0.2,0.2
	C126.3,465.3,126.3,465.3,126.2,465.3z"/>
<path class="st69" d="M149.3,470.2c0-0.4,0-0.8,0-1.1c-0.6-1.1-0.8-2.2-0.3-3.5c0-0.2,0-0.4,0-0.6c0.9-0.9-0.1-2.3,1.3-3.2
	c0,2.9,0.1,5.8-0.1,8.7C150,471.3,149.4,470.8,149.3,470.2z"/>
<path class="st68" d="M224.5,448.7c0.1,0.3,0.3,0.6,0.4,0.9c-0.9,1.6,0.1,3.6-1,5.2c0-3,0-6,0-9
	C224.8,446.7,224.5,447.7,224.5,448.7z"/>
<path class="st68" d="M282.5,429.9c0,3.1,0,6.3,0,9.4c-0.1,0-0.3,0-0.4,0c0-3.1,0-6.3,0-9.4C282.2,429.9,282.4,429.9,282.5,429.9z"
	/>
<path class="st55" d="M219.9,429.9c0,3.1,0,6.3,0,9.4c-0.2,0-0.3,0-0.5,0c0-3.1,0-6.3,0-9.4C219.5,429.9,219.7,429.9,219.9,429.9z"
	/>
<path class="st67" d="M64.8,471c-2.4-1.9-0.9-4.3-1-6.6c0.8,1,0.5,2.1,0.6,3.2c0,0.9,0,1.8,1,2.3c0.9,0.5,1.5-0.3,2.1-0.8
	c0.3,0.4,0.3,0.7,0,1.1c-0.4,0.3-0.8,0.5-1.3,0.8C65.7,471.4,65.3,471.3,64.8,471z"/>
<path class="st68" d="M217.1,429.9c0,3.1,0,6.2,0,9.4c-0.1,0-0.3,0-0.4,0c0-3.1,0-6.3,0-9.4C216.9,429.9,217,429.9,217.1,429.9z"/>
<path class="st71" d="M396.6,433.3c0-0.2,0-0.3,0-0.5c2.3-1,3.5-0.4,3.5,1.9c0.1,1.5,0,3.1-0.3,4.6c-0.8-1.2-0.6-2.5-0.5-3.7
	C399.3,433.7,398.6,432.8,396.6,433.3z"/>
<path class="st72" d="M260.5,448.7c0.1,0.3,0.3,0.7,0.4,1c0,1.5-0.1,3-0.1,4.4c0,0.4-0.1,0.8-0.6,0.8c-0.5,0-0.6-0.4-0.6-0.8
	c0-1.7,0-3.4,0-5.1C259.7,448.5,260,448.2,260.5,448.7z"/>
<path class="st42" d="M561.2,446.1c0.2,0.4,0.3,0.8,0.5,1.2c0,1.5-0.1,3-0.2,4.4c0,0.4-0.1,0.8-0.6,0.8c-0.2,0-0.5-0.2-0.5-0.4
	c0-2-0.5-4.1,0.3-6C560.8,446.1,561.1,446.1,561.2,446.1z"/>
<path class="st72" d="M350.8,448.7c0.1,0.3,0.3,0.7,0.4,1c0,1.5-0.1,3-0.1,4.4c0,0.4-0.1,0.8-0.6,0.8c-0.5,0-0.6-0.4-0.6-0.8
	c0-1.7,0-3.4,0-5.1C350,448.5,350.3,448.2,350.8,448.7z"/>
<path class="st55" d="M102.3,470.8c0-3,0-6,0-9.3C103.4,463.3,103.5,468.4,102.3,470.8z"/>
<path class="st47" d="M253.3,433C253.3,433,253.3,432.9,253.3,433c1.4-1.1,2.8-0.9,3.1,0.6c0.4,1.9,0.4,3.9-0.2,5.8
	c-0.8-1.1-0.5-2.3-0.5-3.5C255.8,434,255.2,433,253.3,433z"/>
<path class="st73" d="M494.6,450.7c0,0.4,0,0.8,0,1.2c-0.2,1.1,0.2,2.3-0.3,3.3c-0.2,0-0.4,0-0.6,0c0-2.9-0.1-5.9,0.1-8.8
	c0-0.8,0.7-0.3,0.9,0.3c0,0.4,0,0.8,0,1.1C495.3,448.8,495.3,449.8,494.6,450.7z"/>
<path class="st55" d="M324.3,454.8c0-3,0-6,0-9c0.1,0,0.3,0,0.5,0c0,3,0,6,0,9C324.6,454.8,324.4,454.8,324.3,454.8z"/>
<path class="st71" d="M446.2,432.8c2.5-0.9,3.3-0.3,3.3,2c0,1.3,0,2.6,0,4c0,0.2-0.1,0.4-0.3,0.8c-1-1.1-0.6-2.4-0.6-3.5
	C448.7,434.2,448.4,432.9,446.2,432.8z"/>
<path class="st39" d="M340.9,432.9c1.6-1,3-0.7,3.2,1c0.2,1.8,0.3,3.6-0.2,5.8c-1-1.4-0.6-2.8-0.6-3.9c0.1-1.7-0.5-2.7-2.3-2.7
	L340.9,432.9z"/>
<path class="st25" d="M126.2,465.3c0-0.1,0-0.2,0-0.4c2.2-1.3,3.6-0.7,3.6,1.8c0,1.4,0.3,2.8-0.3,4.3c-1.2-1-0.7-2.3-0.6-3.3
	C129,465.7,128.4,464.7,126.2,465.3z"/>
<path class="st39" d="M106.5,471.2c-0.6-1.6-0.4-3-0.3-4.2c0.1-1.8-1.4-1.7-2.5-2.2c2.3-0.9,3.3-0.4,3.4,1.9c0.1,1.2,0,2.5-0.1,3.7
	C107,470.5,106.9,470.7,106.5,471.2z"/>
<path class="st39" d="M176.8,448.9c1.5-1,2.9-0.7,3.1,1c0.2,1.6,0,3.3-0.2,5c-1-0.9-0.7-2.1-0.6-3.2
	C179.3,449.9,178.6,449,176.8,448.9L176.8,448.9z"/>
<path class="st39" d="M83.6,471.2c-1.7-2.1,1.4-5.8-3-6.2c1.6-1,3-0.7,3.2,0.8C84.1,467.4,84.2,469.1,83.6,471.2z"/>
<path class="st43" d="M119.1,449c0-0.1,0-0.2,0-0.4c2.1-0.7,3-0.3,3.1,1.8c0.1,1.5,0.2,3-0.4,4.4c-0.8-1.1-0.5-2.3-0.5-3.5
	C121.3,449.8,120.7,449,119.1,449z"/>
<path class="st71" d="M142.8,471.2c-1.7-2.1,1.3-5.6-2.9-6.3c1.7-0.8,2.9-0.6,3.1,0.9C143.3,467.4,143.4,469.2,142.8,471.2z"/>
<path class="st74" d="M86.6,382.2c0,0.4,0,0.9,0,1.3c0,2.2,0,4.3,0,6.5c-0.3,0-0.6,0-0.8,0c0-2.6-0.3-5.2,0.2-7.8
	C86,382.2,86.4,382.2,86.6,382.2z"/>
<path class="st69" d="M340.9,432.9l0.1,0.1c-1.7,1.9-0.2,4.3-1.1,6.3c-0.5-0.8-1-6.1-0.5-6.6C339.9,432,340.3,433,340.9,432.9z"/>
<path class="st39" d="M115.4,448.9l0.1,0.1c-1.3,1.7-0.2,4-1.2,6.4c-0.7-2.5-0.5-4.5-0.3-6.5C114,447.8,114.8,448.9,115.4,448.9z"/>
<path class="st40" d="M163.6,448.4c2.1-0.5,3.1,0.5,3.1,2.5c0,1.3,0.2,2.7-0.4,4.4c-1.3-2.2,0.2-4.5-1.4-6.1
	C164.6,448.6,163.5,449.5,163.6,448.4z"/>
<path class="st68" d="M474.8,433.6c-0.9,1.8,0.1,3.9-0.9,5.7c-0.6-2.2-0.4-4.4-0.3-6.6c0-0.4,0.5-0.4,0.8,0
	C474.7,432.9,475.1,433.1,474.8,433.6z"/>
<path class="st72" d="M217.2,464.9c0,0,0.1,0.1,0.1,0.1c-1.4,1.7-0.3,4-1.2,5.8c-0.8-2-0.6-4-0.4-5.9
	C215.8,463.7,216.7,465,217.2,464.9z"/>
<path class="st69" d="M176.8,448.9L176.8,448.9c-1.5,1.8-0.3,4-1.3,6c-0.6-2-0.6-4-0.3-6C175.4,447.7,176.2,449.1,176.8,448.9z"/>
<path class="st55" d="M445.1,439.3c-0.7-2.1-0.4-4.2-0.4-6.2c0-0.3,0.2-0.7,0.5-0.6c0.3,0.1,0.7,0.6,0.7,0.8
	C445.2,435.2,445.8,437.3,445.1,439.3z"/>
<path class="st69" d="M138.2,470.8c0-1.9,0-3.8,0-5.7c0-0.4,0-0.9,0.5-0.7c0.3,0.1,0.7,0.6,0.7,0.7c-0.6,1.8,0,3.8-0.6,5.7
	C138.6,470.8,138.4,470.8,138.2,470.8z"/>
<path class="st68" d="M481.9,449.6c-0.9,1.6,0.1,3.6-0.9,5.8c-0.6-2.6-0.4-4.7-0.3-6.7c0-0.4,0.5-0.4,0.8,0
	C481.8,448.9,482.2,449.1,481.9,449.6z"/>
<path class="st68" d="M529.2,447.3c-0.9,1.6,0.1,3.5-0.9,5.8c-0.6-2.6-0.4-4.7-0.3-6.7c0-0.4,0.5-0.4,0.8-0.1
	C529.1,446.6,529.5,446.8,529.2,447.3z"/>
<path class="st68" d="M238.7,449.6c-0.9,1.6,0.1,3.6-0.8,5.3c-0.7-2-0.5-4.1-0.4-6.2c0-0.4,0.5-0.3,0.8,0.1
	C238.6,449,238.9,449.1,238.7,449.6z"/>
<path class="st55" d="M79,470.8c0-1.8,0-3.7,0-5.5c0-0.3-0.1-0.8,0.4-0.9c0.6-0.1,0.8,0.6,0.8,0.9c-0.6,1.8,0.1,3.7-0.5,5.5
	C79.5,470.8,79.3,470.8,79,470.8z"/>
<path class="st68" d="M348,448.5c0,2.1,0,4.2,0,6.3c-0.9-2.1-0.7-4.2-0.6-6.3C347.6,448.5,347.8,448.5,348,448.5z"/>
<path class="st68" d="M551.2,452.5c0-2.1,0-4.2,0-6.3c0.2,0,0.4,0,0.5,0c0.4,2.1,0.1,4.2,0.2,6.3
	C551.6,452.5,551.4,452.5,551.2,452.5z"/>
<path class="st68" d="M124.1,454.8c0-2.1,0-4.2,0-6.4c0.2,0,0.3,0,0.5,0c0,2.1,0,4.2,0,6.4C124.5,454.8,124.3,454.8,124.1,454.8z"/>
<path class="st75" d="M163.6,448.4c0.4,0.3,0.9,0.5,1.3,0.8c-0.9-0.1-1.8-0.1-2.3,0.9c-0.5,1.6,0.2,3.2-0.4,4.8l-0.2,0l-0.2,0
	c-0.4-3-0.4-6.1,0-9.2c0.1-0.1,0.3-0.1,0.4,0c0.6,0.9-0.2,2.1,0.5,3C163,448.6,163.3,448.5,163.6,448.4z"/>
<path class="st68" d="M491.1,452.5c0-2.1,0-4.2,0-6.3c0.9,2.1,0.7,4.2,0.7,6.3C491.6,452.5,491.4,452.5,491.1,452.5z"/>
<path class="st70" d="M67.5,470.2c0-0.4,0-0.7,0-1.1c0.1-1.6-0.3-3.2,0.5-4.7c0.6,2,0.6,4.1,0.3,6.1
	C68.2,471.3,67.6,470.9,67.5,470.2z"/>
<path class="st71" d="M82.7,433.7c-0.2,1.8,0.2,3.7-0.6,5.5c-0.3-2.3-1-4.6,0.1-6.9C82.4,432.8,83,433.1,82.7,433.7z"/>
<path class="st68" d="M76.5,470.8c0-2.1,0-4.2,0-6.3c0.2,0,0.4,0,0.6,0c0.3,2.1,0.3,4.2,0,6.3C76.9,470.8,76.7,470.8,76.5,470.8z"/>
<path class="st76" d="M252.1,327.4c-1,0-2.1,0-3.1,0c-0.6,0-1.3-0.2-1.2-0.9c0.2-2.2-1.4-1.8-2.6-1.7c0-1.4,1.1-0.8,1.8-0.9
	c0.5-0.1,1.2,0,1.1,0.7c-0.3,2.8,1.6,2.5,3.4,2.5C251.6,327,251.9,327.3,252.1,327.4z"/>
<path class="st76" d="M482.9,327.4c-1,0-2.1,0-3.1,0c-0.5,0-1.2-0.1-1.2-0.7c0.2-2.3-1.3-2-2.7-1.9c0-1.4,1.1-0.8,1.8-0.9
	c0.5-0.1,1.2,0,1.1,0.7c-0.3,2.8,1.6,2.5,3.3,2.5C482.4,327,482.6,327.3,482.9,327.4z"/>
<path class="st68" d="M116.9,465.7c-0.1,1.7-0.2,3.4-0.2,5.1c-0.2,0-0.4,0-0.6,0c-0.1-2.1-0.7-4.3,0.3-6.4
	C116.7,464.8,117.2,465.1,116.9,465.7z"/>
<path class="st27" d="M134.5,435.9c-0.6-0.2-1.8,0.4-1.8-0.6c-0.1-1.3,1.2-0.7,1.9-0.7c0.6,0,1.8-0.4,1.7,0.7
	C136.2,436.3,135.1,435.7,134.5,435.9z"/>
<path class="st77" d="M116.4,429.8c0,3.2,0,6.4,0,9.6C115.7,436.2,115.7,433,116.4,429.8z"/>
<path class="st78" d="M161.8,445.8c0,3,0,6.1,0,9.2C161.1,451.9,161.1,448.8,161.8,445.8z"/>
<path class="st53" d="M90.2,445.8c0,3,0,6.1,0,9.1C89.5,451.9,89.5,448.8,90.2,445.8z"/>
<path class="st79" d="M368.9,402.6c-0.5-0.1-0.8-0.4-0.8-1c0-0.6,0.5-0.9,1-0.9c0.7,0,1.1,0.4,1,1.1
	C370.1,402.4,369.6,402.7,368.9,402.6z"/>
<path class="st80" d="M204.5,435.5c0.8-1.8,2.4-0.4,3.4-1C207.3,436.5,205.6,435,204.5,435.5z"/>
<path class="st81" d="M360.2,401.6c0,0.7-0.3,1-1,1c-0.5,0-0.9-0.2-1-0.7c-0.1-0.6,0.2-1,0.8-1.1C359.8,400.7,360.1,401,360.2,401.6
	z"/>
<path class="st82" d="M247.7,339.8c1.1,0,2.1,0,3.2,0C249.8,341.2,248.8,341.2,247.7,339.8z"/>
<path class="st83" d="M413.1,339.9c1,0,2.1,0,3.2,0C415.3,341.2,414.2,341.2,413.1,339.9z"/>
<path class="st84" d="M350.4,339.9c0.9,0,1.8,0,2.8,0C352.3,341.1,351.3,341.1,350.4,339.9z"/>
<path class="st85" d="M323.8,339.9c0.9,0,1.8,0,2.7,0C325.6,341.1,324.7,341.1,323.8,339.9z"/>
<path class="st86" d="M116.9,465.7c-0.2-0.5-0.3-0.9-0.5-1.4c0.8,0.5,1.8-0.7,2.7,0.4C118.3,465.1,117.6,465.4,116.9,465.7z"/>
<path class="st71" d="M82.7,433.7c-0.2-0.4-0.3-0.9-0.5-1.3c0.8,0.6,1.8-0.8,2.6,0.4C84,433.1,83.3,433.4,82.7,433.7z"/>
<path class="st87" d="M350.4,324.7c-0.9,0-1.8,0-2.6,0C348.8,323.4,349.5,323.5,350.4,324.7z"/>
<path class="st82" d="M478.5,339.8c0.9,0,1.8,0,2.8,0C480.3,341.1,479.4,341.1,478.5,339.8z"/>
<path class="st77" d="M116.9,439.4c0.2-1.7-0.4-3.5,0.4-5.2C117.1,435.9,117.7,437.7,116.9,439.4z"/>
<path class="st88" d="M143.6,339.9c0.9,0,1.8,0,2.7,0C145.5,341.1,144.6,341.1,143.6,339.9z"/>
<path class="st78" d="M162.2,454.9c0.2-1.6-0.4-3.2,0.4-4.8C162.4,451.7,163.1,453.4,162.2,454.9z"/>
<path class="st89" d="M529.2,447.3c-0.1-0.3-0.2-0.6-0.4-1c0.7-0.1,1.4-0.9,2.2,0C530.7,447.1,529.7,446.8,529.2,447.3z"/>
<path class="st66" d="M474.8,433.6c-0.1-0.3-0.3-0.6-0.4-0.9c0.7-0.1,1.4-0.9,2.1-0.1C476.3,433.5,475.3,433.1,474.8,433.6z"/>
<path class="st90" d="M194.3,339.9c0.8,0,1.5,0,2.3,0C195.9,341.2,195.1,341.2,194.3,339.9z"/>
<path class="st51" d="M487.9,447.3c-0.1-0.3-0.3-0.6-0.4-0.9c0.7-0.1,1.4-0.9,2.1-0.1C489.3,447.1,488.3,446.8,487.9,447.3z"/>
<path class="st66" d="M238.7,449.6c-0.1-0.3-0.3-0.6-0.4-0.9c0.7-0.1,1.3-1,2.1-0.1C240.1,449.5,239.2,449.1,238.7,449.6z"/>
<path class="st53" d="M91,448.9c-0.8-0.9-0.2-2-0.4-3C91.4,446.7,90.8,447.8,91,448.9z"/>
<path class="st91" d="M169.9,339.8c0.6,0,1.2,0,1.8,0C171.1,341.1,170.5,341.1,169.9,339.8z"/>
<path class="st85" d="M492,327.7c0.6,0,1.1,0.1,1.7,0.1c0,0.6-0.4,0.9-1,0.8C492.1,328.6,491.9,328.3,492,327.7z"/>
<path class="st92" d="M487.9,327.8c0.6,0,1.1-0.1,1.7-0.1c0,0.6-0.1,0.9-0.8,1C488.2,328.7,487.9,328.4,487.9,327.8z"/>
<path class="st93" d="M376.7,327.8c0.6,0,1.1,0,1.7,0c0,0.6-0.2,0.9-0.8,0.9C377,328.7,376.7,328.4,376.7,327.8z"/>
<path class="st92" d="M372.3,327.7c0.6,0,1.1,0.1,1.7,0.1c0,0.6-0.3,0.9-0.9,0.9C372.5,328.6,372.3,328.3,372.3,327.7z"/>
<path class="st71" d="M211.6,449.3c0-0.2,0-0.4,0-0.5c0.4-0.5,0.8-0.5,1.4-0.3c0.1,0,0.1,0.4,0.1,0.5
	C212.6,449,212.1,449.1,211.6,449.3z"/>
<path class="st94" d="M124.9,446c0,0.3-0.2,0.5-0.6,0.5c-0.3,0-0.6-0.1-0.6-0.5c0-0.4,0.3-0.7,0.7-0.7
	C124.8,445.4,124.9,445.8,124.9,446z"/>
<path class="st95" d="M98.6,455c0.6,0,1.2,0,1.8,0C99.8,456.2,99.2,456.2,98.6,455z"/>
<path class="st96" d="M204.5,471.1c0.6,0,1.2,0,1.8,0C205.7,472.2,205.1,472.2,204.5,471.1z"/>
<path class="st97" d="M153.3,471c0.6,0,1.2,0,1.8,0C154.5,472.2,153.9,472.2,153.3,471z"/>
<path class="st98" d="M110.6,471c0.6,0,1.2,0,1.8,0C111.8,472.2,111.2,472.2,110.6,471z"/>
<path class="st98" d="M97.3,471.1c0.6,0,1.2,0,1.8,0C98.5,472.2,97.9,472.2,97.3,471.1z"/>
<path class="st98" d="M546.1,452.7c0.6,0,1.2,0,1.8,0C547.3,453.9,546.7,453.9,546.1,452.7z"/>
<path class="st99" d="M425.1,339.9c0.6,0,1.2,0,1.9,0C426.4,341.1,425.8,341,425.1,339.9z"/>
<path class="st95" d="M218.7,455c0.6,0,1.2,0,1.8,0C219.9,456.2,219.3,456.2,218.7,455z"/>
<path class="st99" d="M273,339.9c0.6,0,1.2,0,1.9,0C274.3,341.1,273.7,341,273,339.9z"/>
<path class="st100" d="M439.8,339.9c0.6,0,1.2,0,1.9,0C441.1,341.1,440.4,341,439.8,339.9z"/>
<path class="st98" d="M71.5,471c0.6,0,1.2,0,1.8,0C72.7,472.2,72.1,472.2,71.5,471z"/>
<path class="st101" d="M328.5,455c0.6,0,1.2,0,1.8,0C329.7,456.2,329.1,456.2,328.5,455z"/>
<path class="st102" d="M448.6,455c0.6,0,1.2,0,1.8,0C449.8,456.3,449.2,456.2,448.6,455z"/>
<path class="st99" d="M209,339.9c0.6,0,1.2,0,1.9,0C210.2,341.1,209.6,341,209,339.9z"/>
<path class="st95" d="M539.9,452.7c0.6,0,1.2,0,1.8,0C541.1,453.9,540.5,453.9,539.9,452.7z"/>
<path class="st71" d="M463.8,433.3c0-0.2,0-0.4,0-0.5c0.4-0.5,0.8-0.5,1.4-0.3c0.1,0,0.1,0.4,0.1,0.5
	C464.7,433,464.2,433.2,463.8,433.3z"/>
<path class="st103" d="M392.6,406.5c0.5,0,1.1,0,1.6-0.1c0.1,0.6-0.1,0.9-0.8,1C392.8,407.5,392.6,407.1,392.6,406.5z"/>
<path class="st104" d="M468.6,455c0.6,0,1.2,0,1.8,0C469.8,456.3,469.2,456.2,468.6,455z"/>
<path class="st78" d="M162.7,448.8c-1.1-0.9-0.2-2-0.5-3C163.1,446.7,162.4,447.8,162.7,448.8z"/>
<path class="st77" d="M117.3,432.8c-1.1-0.9-0.2-2-0.5-3C117.7,430.7,117,431.8,117.3,432.8z"/>
<path class="st105" d="M358.9,457.2c-0.4,0-0.8,0.1-1,0.4c-0.5-0.1-1.1-0.6-0.8-1C357.8,456,358.3,456.9,358.9,457.2z"/>
<path class="st77" d="M491.4,444.2c-0.3,0-0.6-0.1-0.7-0.4c-0.1-0.5,0.2-0.7,0.6-0.7c0.2,0,0.5,0.3,0.5,0.5
	C491.9,444,491.7,444.2,491.4,444.2z"/>
<path class="st106" d="M109.6,430.6c-0.3,0-0.6,0-0.7-0.4c-0.1-0.5,0.2-0.7,0.6-0.7c0.2,0,0.5,0.3,0.6,0.5
	C110.2,430.3,110,430.6,109.6,430.6z"/>
<path class="st41" d="M77.3,461.9c0,0.5-0.1,0.7-0.5,0.7c-0.3,0-0.6,0-0.7-0.4c-0.1-0.4,0.2-0.7,0.6-0.7
	C76.9,461.5,77.1,461.8,77.3,461.9z"/>
<path class="st107" d="M259.7,339.9c0.5,0,1,0,1.4,0c-0.1,0.4-0.1,0.7-0.6,0.8C260,340.7,259.8,340.3,259.7,339.9z"/>
<path class="st108" d="M234.7,471.1c0.5,0,0.9,0,1.4,0c-0.1,0.4-0.2,0.8-0.8,0.7C234.8,471.8,234.8,471.4,234.7,471.1z"/>
<path class="st109" d="M75,455.1c0.5,0,0.9,0,1.4,0c-0.1,0.4-0.2,0.8-0.8,0.8C75.2,455.8,75.1,455.4,75,455.1z"/>
<path class="st110" d="M92,455c0.5,0,0.9,0,1.4,0.1c-0.1,0.3-0.2,0.7-0.6,0.7C92.1,455.9,92,455.5,92,455z"/>
<path class="st108" d="M495.9,452.7c0.5,0,0.9,0,1.4,0c-0.1,0.4-0.2,0.8-0.8,0.8C496,453.4,496,453.1,495.9,452.7z"/>
<path class="st108" d="M555.5,452.7c0.5,0,0.9,0,1.4,0c-0.1,0.4-0.2,0.8-0.8,0.7C555.6,453.4,555.5,453,555.5,452.7z"/>
<path class="st108" d="M476.2,455.1c0.5,0,0.9,0,1.4,0c-0.1,0.4-0.2,0.8-0.8,0.8C476.3,455.8,476.2,455.4,476.2,455.1z"/>
<path class="st108" d="M376.1,455.1c0.5,0,0.9,0,1.4,0c-0.1,0.4-0.2,0.8-0.8,0.7C376.3,455.8,376.2,455.4,376.1,455.1z"/>
<path class="st111" d="M515,432.2c-0.1,0.9-0.7,0.9-1.4,0.8C513.8,432.2,514.4,432.2,515,432.2z"/>
<path class="st112" d="M502.1,452.7c0.4,0,0.9,0,1.3-0.1c0,0.5-0.1,0.9-0.7,0.8C502.2,453.4,502.2,453,502.1,452.7z"/>
<path class="st108" d="M568.8,452.7c0.5,0,0.9,0,1.4,0c-0.1,0.4-0.2,0.8-0.8,0.7C569,453.4,568.9,453.1,568.8,452.7z"/>
<path class="st110" d="M523,452.7c0.5,0,0.9,0,1.4,0c-0.1,0.3-0.2,0.7-0.6,0.7C523.2,453.5,523.1,453.1,523,452.7z"/>
<path class="st31" d="M347.8,446.6c-0.3-0.1-0.6-0.2-0.5-0.5c0-0.2,0.2-0.4,0.4-0.4c0.3-0.1,0.6,0,0.6,0.4
	C348.4,446.4,348.1,446.5,347.8,446.6z"/>
<path class="st113" d="M254.3,455c0.5,0,0.9,0,1.4,0c-0.1,0.3-0.2,0.7-0.6,0.7C254.5,455.9,254.4,455.5,254.3,455z"/>
<path class="st108" d="M534.1,452.7c0.5,0,0.9,0,1.4,0c-0.1,0.4-0.2,0.8-0.8,0.7C534.3,453.4,534.2,453.1,534.1,452.7z"/>
<path class="st114" d="M75.9,406.6c0.5,0,0.9,0,1.4,0c0,0.4-0.1,0.9-0.7,0.8C76.1,407.4,76,407,75.9,406.6z"/>
<path class="st109" d="M461.5,455.1c0.5,0,0.9,0,1.4,0c-0.1,0.4-0.2,0.8-0.8,0.8C461.6,455.8,461.6,455.4,461.5,455.1z"/>
<path class="st115" d="M341.9,455.1c0.5,0,0.9,0,1.4,0c-0.1,0.4-0.2,0.8-0.8,0.8C342,455.8,341.9,455.4,341.9,455.1z"/>
<path class="st109" d="M334.7,455.1c0.5,0,0.9,0,1.4,0c-0.1,0.4-0.2,0.8-0.8,0.8C334.9,455.8,334.8,455.4,334.7,455.1z"/>
<path class="st108" d="M442.8,455.1c0.5,0,0.9,0,1.4,0c-0.1,0.4-0.2,0.8-0.8,0.8C443,455.8,442.9,455.4,442.8,455.1z"/>
<path class="st108" d="M268,455c0.5,0,0.9,0,1.4,0c-0.1,0.3-0.2,0.7-0.6,0.7C268.3,455.9,268.1,455.5,268,455z"/>
<path class="st112" d="M382.8,455.1c0.4-0.1,0.9-0.1,1.3-0.2c0,0.5,0,0.9-0.6,0.9C383,455.8,382.9,455.4,382.8,455.1z"/>
<path class="st116" d="M78.6,434.5c0,0.9-0.7,0.9-1.4,0.8C77.4,434.5,78,434.5,78.6,434.5z"/>
<path class="st108" d="M232.5,455.1c0.5,0,0.9,0,1.4,0c-0.1,0.4-0.2,0.8-0.8,0.8C232.6,455.8,232.5,455.4,232.5,455.1z"/>
<path class="st108" d="M204.9,455.1c0.5,0,0.9,0,1.4,0c-0.1,0.3-0.2,0.7-0.6,0.7C205.1,455.9,205,455.5,204.9,455.1z"/>
<path class="st117" d="M170.2,455.1c0.5,0,0.9,0,1.4,0c-0.1,0.3-0.2,0.7-0.6,0.7C170.4,455.9,170.3,455.5,170.2,455.1z"/>
<path class="st110" d="M368.6,455c0.5,0,0.9,0,1.4,0c-0.1,0.3-0.2,0.7-0.6,0.7C368.8,455.9,368.6,455.5,368.6,455z"/>
<path class="st108" d="M510.1,452.7c0.5,0,0.9,0,1.4,0c-0.1,0.4-0.2,0.8-0.8,0.8C510.2,453.4,510.2,453.1,510.1,452.7z"/>
<path class="st112" d="M64.8,471c0.4,0,0.9,0,1.3,0c-0.1,0.4-0.1,0.7-0.6,0.8C65,471.9,64.9,471.5,64.8,471z"/>
<path class="st31" d="M551.4,444.2c-0.3,0-0.6-0.1-0.6-0.4c0-0.4,0.3-0.5,0.5-0.5c0.2,0,0.5,0.2,0.5,0.3
	C551.9,443.9,551.8,444.2,551.4,444.2z"/>
<path class="st115" d="M143.5,455.1c0.5,0,0.9,0,1.4,0c-0.1,0.4-0.2,0.8-0.8,0.8C143.7,455.8,143.6,455.4,143.5,455.1z"/>
<path class="st117" d="M136.9,455.1c0.5,0,0.9,0,1.4,0c-0.1,0.3-0.2,0.7-0.6,0.7C137.1,455.9,136.9,455.5,136.9,455.1z"/>
<path class="st112" d="M122.2,471.1c0.4-0.1,0.9-0.1,1.3-0.2c0,0.5,0,0.9-0.6,1C122.4,471.8,122.3,471.4,122.2,471.1z"/>
<path class="st109" d="M132.9,471c0.5,0,0.9,0,1.4,0c-0.1,0.4-0.2,0.8-0.8,0.8C133,471.7,132.9,471.4,132.9,471z"/>
<path class="st108" d="M146.6,471.1c0.5,0,0.9,0,1.4,0c-0.1,0.4-0.2,0.8-0.8,0.8C146.8,471.8,146.7,471.4,146.6,471.1z"/>
<path class="st112" d="M132.4,455.1c0.4-0.1,0.9-0.1,1.3-0.2c0,0.5-0.1,0.9-0.7,0.9C132.6,455.8,132.5,455.4,132.4,455.1z"/>
<path class="st108" d="M108.8,455.1c0.5,0,0.9,0,1.4,0c-0.1,0.4-0.2,0.8-0.8,0.8C109,455.8,108.9,455.4,108.8,455.1z"/>
<path class="st108" d="M228,471c0.5,0,0.9,0,1.4,0c-0.1,0.4-0.2,0.8-0.8,0.8C228.2,471.7,228.1,471.4,228,471z"/>
<path class="st118" d="M275.5,333.9c-0.1,0.5-0.1,1.2-0.3,2c-0.2,1.3-1.1,1.9-2.4,1.7c-1.3-0.1-1.7-1-1.6-2.2c0-1,0-2.1,0-3.1
	c-0.1-1.3,0.1-2.4,1.7-2.5c1.6-0.1,2.3,0.8,2.4,2.2C275.4,332.7,275.5,333.2,275.5,333.9z"/>
<path class="st118" d="M207.2,333.6c0-0.5,0-1,0-1.5c-0.1-1.4,0.5-2.1,1.9-2.1c1.4-0.1,2.1,0.6,2.2,1.9c0.2,1.4,0.2,2.8-0.1,4.2
	c-0.2,1.2-1,1.7-2.2,1.6c-1.3-0.1-1.8-0.8-1.8-2C207.2,334.9,207.2,334.2,207.2,333.6z"/>
<path class="st118" d="M442.1,333.6c0,0.4,0,0.7,0,1.1c-0.1,1.5-0.2,2.9-2.2,2.9c-2.1,0-1.9-1.6-1.9-3c0-0.8,0-1.6,0-2.4
	c-0.1-1.4,0.4-2.3,2-2.3c1.5,0,2.1,0.9,2.2,2.2C442.1,332.6,442.2,333.1,442.1,333.6C442.2,333.6,442.2,333.6,442.1,333.6z"/>
<path class="st119" d="M299,332.8c-0.7-0.5-2.2,0.7-2.2-0.9c0-1.3,1-2.1,2.4-2c1.3,0.1,2.2,0.8,2.1,2
	C301.2,333.5,299.8,332.3,299,332.8z"/>
<path class="st120" d="M324.7,332.8c-0.8-0.5-2.2,0.5-2.2-1c0-1.4,1.1-2.1,2.4-2c1.1,0,2.1,0.6,2,1.9
	C326.8,333.6,325.2,332.1,324.7,332.8z"/>
<path class="st121" d="M391,333.6c0,0.9-0.1,1.7-0.4,2.6c-0.3,1-1,1.4-1.9,1.5c-1.1,0-1.8-0.5-2.1-1.6c-0.3-1.2-0.5-2.4-0.3-3.7
	c0.2-1.5,0.8-2.5,2.5-2.5c1.6,0.1,2,1.3,2.1,2.6C391,332.8,391,333.2,391,333.6z"/>
<path class="st118" d="M142.6,333.7c0.1-0.8,0.1-1.5,0.2-2.1c0.3-1,0.9-1.6,2.1-1.7c1.2,0,2,0.6,2.3,1.7c0.3,1.3,0.3,2.6,0,3.9
	c-0.2,1.2-0.7,2.1-2.1,2.1c-1.4,0.1-2-0.8-2.2-2C142.8,335,142.7,334.2,142.6,333.7z"/>
<path class="st122" d="M226.3,409.2c-0.1,1.6-0.1,3.2-2.2,3.3c-2.1,0-2.3-1.6-2.3-3.1c0-1.5,0.1-3.4,2.2-3.5
	C226.1,405.9,226.1,407.7,226.3,409.2z"/>
<path class="st123" d="M349.8,409.4c0-2.3,0.9-3.7,2.3-3.6c2.1,0.2,2.1,2,2.1,3.5c0,1.5-0.1,3.2-2.2,3.4
	C350.5,412.9,349.8,411.7,349.8,409.4z"/>
<path class="st124" d="M207.8,404.1c1,1.2,1,2.7,1.5,4.1c0.1,0.4,0.1,0.8-0.3,0.9c-0.8,0.1-1.6,0.1-2.4-0.1
	c-0.4-0.1-0.3-0.6-0.1-0.9C206.8,406.8,207,405.3,207.8,404.1z"/>
<path class="st125" d="M455.1,412.9c-0.9,0-1.7-0.1-1.7-1.3c0-1.7,1.3-1.6,2.4-1.9c0.9-0.2,1.3,0.1,1.3,1.1
	C457.1,412.3,456.3,412.8,455.1,412.9z"/>
<path class="st126" d="M78.9,412.9c-1.1,0-1.9-0.2-1.9-1.4c0.1-1.7,1.5-1.5,2.6-1.7c0.7-0.2,1.3-0.1,1.3,0.9
	C80.8,412,80.1,412.7,78.9,412.9z"/>
<path class="st123" d="M344.7,409.6c-0.1,1.6-0.2,3.3-2.4,3.2c-2.2-0.1-2.1-1.9-2.1-3.5c0-2.2,1-3.6,2.4-3.5
	C343.9,405.9,344.7,407.4,344.7,409.6z"/>
<path class="st127" d="M478.4,408.8c-0.9-0.5-2.2,0.5-2.2-1c0-1.1,0.7-2.1,2.1-2c1.2,0,2,0.8,2,1.9
	C480.5,409.5,478.9,408.1,478.4,408.8z"/>
<path class="st128" d="M375.7,408.8c-0.6-0.4-2,0.5-2-1c0-1.3,0.9-2,2.2-2c1.1,0,2,0.6,2,1.9C377.9,409.4,376.5,408.3,375.7,408.8z"
	/>
<path class="st129" d="M102.6,408.8c-0.8-0.4-2.1,0.5-2.1-0.9c0-1.2,0.8-2,2.2-2.1c1.4,0,2.1,1,2,2.1
	C104.6,409.2,103.2,408.3,102.6,408.8z"/>
<path class="st130" d="M257.4,408.8c-0.6-0.4-2,0.6-1.9-1c0.1-1.3,1-2,2.2-1.9c1.1,0,2,0.7,1.9,2
	C259.5,409.4,258.2,408.4,257.4,408.8z"/>
<path class="st121" d="M325.4,434.2c0-0.4-0.1-0.9,0-1.3c0.1-0.8-0.5-1.9,0.7-2.3c1.1-0.4,2,0.3,2.7,1c1.9,1.9,1.3,5.6-1,6.3
	c-1.8,0.6-2.4,0.1-2.4-1.7C325.3,435.6,325.4,434.9,325.4,434.2z"/>
<path class="st131" d="M505.3,433.5c0,1,0,2.3-1.7,2.3c-1.6,0-1.8-1.3-1.8-2.5c0-1.1,0.2-2.3,1.7-2.4
	C505.3,430.8,505.3,432,505.3,433.5z"/>
<path class="st132" d="M521.8,449.4c0.3-1.1,0.1-2.5,1.8-2.5c1.6,0,2,1.1,1.9,2.4c0,1.1-0.1,2.5-1.8,2.6
	C522.1,451.9,522.1,450.5,521.8,449.4z"/>
<path class="st0" d="M364.5,435.7c0.1-1.2,0-2.6,1.7-2.6c1.6,0,1.8,1.3,1.8,2.5c0,1.2-0.2,2.5-1.9,2.4
	C364.5,438.1,364.5,436.9,364.5,435.7z"/>
<path class="st133" d="M145.9,451.7c-0.1,1.2-0.1,2.5-1.8,2.4c-1.6-0.1-1.8-1.4-1.8-2.6c0-1.1,0.3-2.3,1.8-2.4
	C145.9,449.1,145.8,450.4,145.9,451.7z"/>
<path class="st131" d="M471,435.7c-0.1,1.1,0,2.4-1.7,2.5c-1.6,0-1.9-1.2-1.9-2.4c0-1.2,0.1-2.5,1.8-2.5
	C470.9,433.1,470.9,434.4,471,435.7z"/>
<path class="st132" d="M359.5,435.4c-0.6-0.1-1.6,0.3-1.6-0.9c0-0.9,0.6-1.3,1.5-1.3c0.9,0,1.6,0.3,1.6,1.3
	C361,435.6,360.1,435.3,359.5,435.4z"/>
<path class="st132" d="M340.9,451.7c0-1.1,0-2.5,1.7-2.5c1.5,0,1.9,1.1,1.8,2.3c0,1.2,0,2.7-1.9,2.7
	C341,454.1,340.9,452.9,340.9,451.7z"/>
<path class="st131" d="M404.4,435.4c-0.7-0.1-1.6,0.2-1.5-0.8c0-1,0.7-1.4,1.6-1.4c0.8,0,1.5,0.4,1.5,1.3
	C405.9,435.7,404.9,435.2,404.4,435.4z"/>
<path class="st134" d="M77,438.2c-0.7,0-1.2-0.2-1.1-1c0.2-1.1,1.2-0.8,1.9-1c0.6-0.2,0.8,0.2,0.8,0.7C78.6,437.8,78,438.2,77,438.2
	z"/>
<path class="st135" d="M170.9,451c-0.6-0.2-1.6,0.3-1.5-0.8c0.1-0.8,0.7-1,1.4-1c0.8,0,1.6,0.2,1.5,1.1
	C172.3,451.4,171.3,450.7,170.9,451z"/>
<path class="st136" d="M230.3,468c0,1-0.3,2.3-1.9,2.1c-1.5-0.1-1.7-1.4-1.7-2.7c0-1.2,0.4-2.3,1.8-2.3
	C230.2,465.2,230.3,466.5,230.3,468z"/>
<path class="st137" d="M137.3,451c-0.5-0.2-1.5,0.4-1.4-0.7c0.1-0.8,0.8-1.1,1.6-1.1c0.8,0,1.6,0.2,1.5,1.1
	C138.9,451.4,137.9,450.8,137.3,451z"/>
<path class="st138" d="M329.6,451c-0.7-0.3-1.8,0.4-1.8-0.8c0-0.8,0.8-1.1,1.6-1.1c0.8,0,1.5,0.3,1.5,1.2
	C331,451.5,329.9,450.6,329.6,451z"/>
<path class="st132" d="M334.7,435.4c-0.5-0.2-1.5,0.4-1.5-0.7c0-1,0.7-1.5,1.8-1.5c0.8,0,1.5,0.3,1.5,1.2
	C336.6,435.7,335.5,435.3,334.7,435.4z"/>
<path class="st132" d="M496.7,433c-0.5-0.2-1.5,0.4-1.5-0.7c0-1,0.8-1.5,1.8-1.5c0.8,0,1.5,0.4,1.5,1.3
	C498.5,433.5,497.4,432.9,496.7,433z"/>
<path class="st139" d="M534.6,448.7c-0.6-0.3-1.7,0.4-1.6-0.8c0.1-0.8,0.8-1.1,1.7-1.1c0.8,0,1.4,0.4,1.4,1.1
	C536.2,449.3,534.9,448.1,534.6,448.7z"/>
<path class="st140" d="M480.3,435.4c-0.6-0.2-1.6,0.5-1.7-0.7c-0.1-0.9,0.6-1.5,1.5-1.5c1,0,1.8,0.5,1.8,1.5
	C481.8,435.7,480.8,435.2,480.3,435.4z"/>
<path class="st141" d="M510.6,448.6c-0.5-0.2-1.6,0.4-1.6-0.5c0-0.9,0.8-1.3,1.7-1.3c0.8,0,1.6,0.4,1.5,1.2
	C512.1,449,511.2,448.4,510.6,448.6z"/>
<path class="st132" d="M260.8,435.4c-0.6-0.2-1.5,0.3-1.5-0.8c0-0.9,0.6-1.4,1.6-1.5s1.6,0.5,1.7,1.3
	C262.6,435.9,261.4,435.1,260.8,435.4z"/>
<path class="st137" d="M99.4,451c-0.6-0.2-1.5,0.4-1.6-0.6c0-0.8,0.7-1.2,1.5-1.2c0.9,0,1.7,0.4,1.7,1.3
	C101,451.3,100,450.8,99.4,451z"/>
<path class="st142" d="M456.3,434.5c0.3-0.9,0.9-1.4,1.9-1.3c0.9,0.1,1.5,0.6,1.4,1.4c-0.2,1.4-1.4,0.6-2.1,0.7
	C456.9,435.5,456.2,435.5,456.3,434.5z"/>
<path class="st135" d="M75.9,454.2c-0.6,0-1.3,0-1.3-0.9c0-1.3,1.3-1,2-1.2c0.5-0.2,1.1-0.1,1,0.7C77.4,453.6,76.8,454.2,75.9,454.2
	z"/>
<path class="st143" d="M449.7,454.2c-0.6,0-1.2-0.2-1.1-1c0.2-1.2,1.4-0.8,2.1-1.1c0.5-0.2,0.9,0,0.8,0.6
	C451.4,453.7,450.8,454.2,449.7,454.2z"/>
<path class="st144" d="M513.7,435.9c-0.8-0.1-1.4-0.2-1.3-1c0.2-1.2,1.3-0.9,2.1-1.2c0.5-0.2,0.9,0,0.9,0.6
	C515.2,435.4,514.5,435.8,513.7,435.9z"/>
<path class="st135" d="M336.5,452c0.6-0.1,1,0.1,0.9,0.7c-0.1,1-0.8,1.5-1.9,1.5c-0.6,0-1.3-0.2-1.1-1
	C334.6,452,335.8,452.4,336.5,452z"/>
<path class="st135" d="M462.5,454.2c-0.6,0-1.3,0-1.4-0.8c0-1.3,1.2-1,1.9-1.3c0.5-0.2,1.1-0.2,1,0.6
	C464,453.6,463.4,454.1,462.5,454.2z"/>
<path class="st134" d="M135.5,468.8c-0.2,1-0.9,1.5-1.9,1.4c-0.6,0-1.1-0.2-1.1-0.9c0.1-1.4,1.4-1,2.2-1.3
	C135.3,467.8,135.5,468.2,135.5,468.8z"/>
<path class="st145" d="M255.9,452.2c0.7-0.2,1-0.1,1,0.5c0,1-0.5,1.5-1.5,1.5c-0.7,0-1.5,0-1.5-0.9
	C254.1,452.1,255.3,452.4,255.9,452.2z"/>
<path class="st131" d="M289,435.7c-0.2,1.1-0.3,2.4-1.9,2.4c-1.6,0-1.9-1.3-1.8-2.5c0-1.1,0.1-2.5,1.9-2.5
	C288.6,433.2,288.8,434.4,289,435.7z"/>
<path class="st121" d="M350.3,435.7c0,1.1-0.2,2.3-1.8,2.4c-1.7,0-1.9-1.2-1.8-2.4c0-1.2,0-2.5,1.7-2.5
	C350,433.2,350.3,434.3,350.3,435.7z"/>
<path class="st146" d="M275.6,435.7c0-1.3,0.3-2.5,1.8-2.5c1.6,0,1.8,1.2,1.8,2.5c0,1.3-0.3,2.4-1.8,2.4
	C275.8,438.1,275.6,436.9,275.6,435.7z"/>
<path class="st146" d="M213.8,436c0,1.1-0.3,2.2-1.9,2.2c-1.6,0-1.8-1.3-1.7-2.5c0-1.3,0.3-2.4,1.9-2.4
	C213.7,433.2,213.8,434.5,213.8,436z"/>
<path class="st121" d="M226.3,435.8c0,1-0.2,2.2-1.8,2.3c-1.6,0.1-1.9-1.2-1.8-2.4c0-1.2,0-2.5,1.7-2.5
	C225.9,433.2,226.2,434.3,226.3,435.8z"/>
<path class="st131" d="M554.2,449.4c0.3-1.1,0.2-2.5,1.8-2.5c1.6-0.1,2,1,2,2.3c0,1.3-0.2,2.6-1.9,2.7
	C554.5,451.9,554.5,450.5,554.2,449.4z"/>
<path class="st121" d="M234.8,451.6c0,1.2-0.1,2.5-1.8,2.5c-1.6,0-1.9-1.1-1.9-2.5c0-1.3,0.3-2.5,1.8-2.5
	C234.7,449.1,234.8,450.4,234.8,451.6z"/>
<path class="st121" d="M203.9,451.5c0.1-1.2,0.2-2.4,1.7-2.4c1.7,0,1.9,1.3,1.9,2.6c0,1.3-0.4,2.4-2,2.3
	C203.9,454,204,452.7,203.9,451.5z"/>
<path class="st147" d="M109.7,467.3c0-0.9,0.2-2.2,1.8-2.1c1.6,0.1,1.8,1.2,1.8,2.5c0,1.3-0.3,2.5-1.9,2.4
	C109.9,470.1,109.7,468.9,109.7,467.3z"/>
<path class="st131" d="M237.4,467.6c-0.2,1.2-0.3,2.5-1.9,2.5c-1.8,0.1-2-1.3-2-2.5c0-1.2,0.3-2.4,1.9-2.4
	C237,465.2,237.2,466.4,237.4,467.6z"/>
<path class="st148" d="M111.5,451.6c-0.2,1.2-0.2,2.5-1.8,2.6c-1.6,0.1-2-1-2-2.3c0-1.3,0.2-2.6,1.9-2.7
	C111.1,449.1,111.3,450.4,111.5,451.6z"/>
<path class="st140" d="M91,450.6c0.3-1.1,1-1.6,2.1-1.4c1.2,0.3,1.4,1.4,1.4,2.4c0,1-0.2,2.1-1.4,2.4c-1.1,0.3-1.8-0.2-2.2-1.3
	C90.8,452,90.8,451.3,91,450.6z"/>
<path class="st53" d="M91,450.6c0,0.7,0,1.5,0,2.2C90.5,452,90.5,451.3,91,450.6z"/>
<path class="st131" d="M378.8,451.7c-0.2,1.2-0.4,2.4-2,2.4c-1.7,0-1.9-1.4-1.9-2.7c0-1.2,0.4-2.4,2-2.3
	C378.5,449.3,378.6,450.5,378.8,451.7z"/>
<path class="st132" d="M370.7,453.9c-1,0.3-1.9,0.5-2.5-0.5c-0.6-1.1-0.7-2.2-0.1-3.3c0.6-1.1,1.7-1,2.7-0.7
	C371.4,450.9,371.5,452.4,370.7,453.9z"/>
<path class="st131" d="M89.3,469.7c-1,0.4-2,0.4-2.5-0.6c-0.5-1.1-0.6-2.4,0.1-3.4c0.8-1,1.8-0.6,2.7,0
	C90.2,467.1,90.5,468.5,89.3,469.7z"/>
<path class="st147" d="M375.7,437.7c-0.7-1.6-0.7-3.1,0.4-4.5c1-0.1,2.1-0.1,2.6,1.1c0.4,1.1,0.5,2.3-0.4,3.3
	C377.5,438.5,376.6,438.2,375.7,437.7z"/>
<path class="st121" d="M494.6,450.7c0-1,0-1.9,0-2.8c0.8-1,1.9-1.7,2.9-0.5c1,1.1,1,2.7,0,3.9C496.5,452.5,495.5,451.7,494.6,450.7z
	"/>
<path class="st132" d="M360.4,449.3c0.8,1.2,0.6,2.5,0.6,3.8c-0.8,0.7-1.7,1.4-2.7,0.5c-1-0.9-1-2.1-0.6-3.3
	C358.1,449,359.3,449.1,360.4,449.3z"/>
<path class="st121" d="M148.9,465.6c0.6,1.1,0.4,2.3,0.3,3.5c-0.8,0.9-1.7,1.6-2.8,0.6c-1.1-1-1-2.5-0.4-3.7
	C146.7,464.7,147.8,465.1,148.9,465.6z"/>
<path class="st121" d="M270.3,449.2c0.5,1.7,1,3.4-0.4,4.9c-2,0.3-2.7-0.7-2.7-2.6C267.2,449.4,268.4,448.9,270.3,449.2z"/>
</svg>
